<mxfile host="app.diagrams.net" modified="2023-02-20T01:14:56.352Z" agent="5.0 (Windows NT 10.0; Win64; x64) AppleWebKit/537.36 (KHTML, like Gecko) Chrome/109.0.0.0 Safari/537.36" etag="3KdYD1a1vestUhvgXMR6" version="20.8.20" type="github">
  <diagram name="第 1 页" id="TOnTqDxJyvP6qQmUEx9s">
    <mxGraphModel dx="1500" dy="704" grid="1" gridSize="10" guides="1" tooltips="1" connect="1" arrows="1" fold="1" page="1" pageScale="1" pageWidth="827" pageHeight="1169" math="0" shadow="0">
      <root>
        <mxCell id="0" />
        <mxCell id="1" parent="0" />
        <mxCell id="6NqZDsg5gwXR2XJMQnKW-1" value="" style="shape=image;verticalLabelPosition=bottom;labelBackgroundColor=default;verticalAlign=top;aspect=fixed;imageAspect=0;image=data:image/png,iVBORw0KGgoAAAANSUhEUgAABEIAAAJ2CAYAAABb+Sf4AAAAAXNSR0IArs4c6QAAIABJREFUeF7s3Qd8ltX5//Fv9t6QEJKQkEDYBJBRVBQX4q6zWveoWNtqtf6qrVqt1e5qnRW3tlXUitaNqKACioLsTYAQQhJICAnZ8/c6JyZNWBk8T/KMz/m/+gtJ7vuc67zP3b7+z5VzX8enqampSTQEEEAAAQQQQAABBBBAAAEEEEDACwR8SIR4wSozRQQQQAABBBBAAAEEEEAAAQQQsAIkQngQEEAAAQQQQAABBBBAAAEEEEDAawRIhHjNUjNRBBBAAAEEEEAAAQQQQAABBBAgEcIzgAACCCCAAAIIIIAAAggggAACXiNAIsRrlpqJIoAAAgi4m0BlZaXWr1+v5cuXq66urjX8xMREjR8/Xv369ZOvr2/rz0tKSrRp06YDpmmuSU5OVlxcnAICAg7LcKg+/P39lZaWpujo6HZjuptpd+Pt6lrsP05jY6MKCgq0ZMkS5efnt/7arMeYMWM0dOhQhYaGtv68oaFBGzZsUHl5+QEhh4eHKyUlRearj4/PYae0c+dO7dix44BrQkJClJqaqoiIiA776K4Z9yGAAAIIIOCqAiRCXHVliAsBBBBAwGsFqqqq9Morr+hf//qXysrKDulwzjnn6Pbbb1dgYKC95ttvv9X1119/yOvNdccee6yuueYaDRky5KAfgDvqw3wA/9nPfqapU6d6RUKku2vRsgjmcL5169bp0Ucf1TfffHPYtXnyySc1evRoe011dbXuv/9+ffjhh4e8Z8CAAbrgggt07rnnyiQ2Dtbefvtt3XfffYfsY+TIkfr5z3+urKwsEiJe+784TBwBBBDwPgESId635swYAQQQQMCFBcxf8O+++26tWLHCJjimTZum448/XmFhYTbqiooKu6vg448/1oQJE3TXXXcpODi4XSKkb9++mj59euvPa2trtXLlSq1Zs0bm32Z3x4UXXqgbbrihtd8WkpZEyP59mJ0i8+bNU3Fxsb3/17/+tc466yyP/vB8JGthPM2ujtmzZ+tvf/ub6uvrNWjQIJ199tn2a0vLzs7WZ599Znf9PPHEExo3btwBiZDjjjvOJq5amolr2bJlMl9NM8kp88yMHTv2gPVoSYSkp6fb58isnWl5eXlasGCBTbRFRkbqj3/8oyZOnOjC/80gNAQQQAABBBwnQCLEcZb0hAACCCCAwBEJFBUV2QSDSUaYJMevfvUrmb/6H6yZhMbGjRvtB+SW111akhjmr/x///vf7WssbVtNTY3mzJmjxx9/3CY0zjjjDLujpO0rGYfrw4z57LPP2v+YRMkjjzyiwYMHH9GcXfXmI10LsxPknXfe0e9//3u7c+bWW2+1SZCW3Tv7z9skJsxrLv379z8gEfKb3/zG3tu2mf5zc3PtGsyfP/+QyYyWRIhJjLVNmpm+TFLtT3/6k95//30NHz7cJmzMutIQQAABBBDwdAESIZ6+wswPAQQQQKDbAtvyKrU1r1wFRdXallehyPBAJcUHKyEuWGOGRSskyK/bfe9/o9k9YJIX5pUYsyvAfIDu06dPl/rvKBHS0lnbnQ4zZsywr8r4+TXPpaM+zA4Ckzwxr3mYVy5OP/30LsXY3YtzyzaptHaPSquLVFxVqNCAcMUExysyKFbpUcPl59u808ERzRFrYWq73HLLLTI7abqze6btqzEHS4S0zLPtrhOTRHnwwQdtLZeWdrhEiLnG1A+56aab7O4S82qOqVdCQwABBBBAwNMFSIR4+gozPwQQQACBbgm89UmeZs/NU1VNw0HvT0kM1bXnpWnEoKhu9b//TatWrdLNN9+soKAgPfTQQ7Z4ZldbR0mMtv19/fXXuu222+yrMW13dnTUh/ngbT5sv/rqq7ryyittvRBnt4V572tpwfxDDhMfmqzTMy5TZGCsQ0I50rUwO2f++te/2tdiLrnkEluDoyXR1NkAO5sIMf21vfbSSy+1iY2W8TpKhJgisOa1GvN6zuESLp2Nm+sQQAABBBBwBwESIe6wSsSIAAIIINCjAn97YaO+WlHcbsz05DDt3VenPaW17X5+xdmpOuuE5tcZjqQ999xztkaEeQXijjvuOOQrFIcbo6MkRtt7zQfge++9V59++ql+8Ytf2A/spnXUhzm95s9//rPefPNN3XjjjXY3iTPb25uf07bS9e2GMImPivoyVdS2LyR7wZAb1T/8f7shuhvXka6F2V1hklqFhYV67LHHWgugdiWeriRCTL+LFi2yr9+YWiBmZ1F8fLwdrqNEyL59++zztnjxYvuazEknndSVMLkWAQQQQAABtxQgEeKWy0bQCCCAAALOEnjvs3y98Na21u4vPztVxx3VV9GRzcfO7iis0gef5+ujRYWt1/z+5yM1ODWi2yGZk0l+97vf6aOPPtKdd95pTwHpTusoibF/ny0f+E2tEDOuqV/RUR+7d++2iZO1a9faD9zmFBpntUV5H2hJwTzbfbB/qE4ccL4GRA5WoF9zcdg91YX6tuAzrS1e0hrCtaPvUlhAZLdDcsRamN02Jklk6m4Yo9jYru9U6WoipCX5YuqGtH3FpaNEiDlu2ewgMTt9zMk2bYuydhuRGxFAAAEEEHBxARIhLr5AhIcAAggg0HMCazaX6t7H19oBhw6M0O9uGnnIwU1C5JY/Lre/7xsbpD//YrTCQ7tXp2Lv3r329YnVq1frqaeeaj05pGVwUxizvLzcflht20wRTvNqS2fre+w/mYN9SD5cIsQUW505c6ZeeuklG+Mf/vAHxcXFOWWB1hZ9o49zXrd9m10eZrfHoVr23tV6L/ul1mu/P/hH8vdtTlx1tTliLTpKPphdNaZQ6f7NJKJaCtd2NRFyqLgPF0tpaandBWIScAcrptpVO65HAAEEEEDAXQRIhLjLShEnAggggIDTBe58eLU2btunyLAAPXbXWIUEH74YatvEyTknJumysw5+wktHgXf04bvth+K2fSUmJtr6HgMHDrQ/7mg3x/5xHC4RYk6r+elPf6rw8HCZ+EyS5pNPPrGve5jkh9nB4qzjVqsbKvXU8nttuCH+Ybpy5O2tu0AOZbls1xf6Ivcd++uj+k3VMUndK+LqiLXoKBHSsk77z6VtzRVHJ0LGjx+vyy67zO76KSgosEcpz5071x6fa16nMcfnmq80BBBAAAEEvEGARIg3rDJzRAABBBDoUKC8sl5X3/mNvc68DnN2J+t+/P6pdVq2bq8mjIrVL68Z0uE4B7ug7YdvUydk/wSDKb5pak2sWLHC3l5fX6+tW7fahMSRJEJMnY8HHnig3W6AQ31Ib4l77NixthbFsGHDujXXztxUULFdr61/zF56bPIZGpdwfGdu0zMr7lNlfbnSo0fozIwrO3XP/hc5Yi1aEiHTpk2zhUhDQkLaDWOSSn/5y19af2ZOljGvthxJImTPnj12V5F5ZantrqKWWA6FMXXqVPuqk0mq0RBAAAEEEPAWARIh3rLSzBMBBBBAQPc+vuaQCuWVDcrZ2fy6wr0/Gd7p02CeeCVb877epaBAPw0aEHbI/kcMitSFp6Yc9PdtT+7oTI2Qlg/rxcXF3U6EtD395dprr9WPf/xjG1tLIqRv3742QRIcHGx3hZjdAqmpqerXr5/MKzlH2mZvnHnILirrym39D9POy5yh5IiMTg331qZntL1sowJ8A5QQdujdOUNix2lEnwlOW4sFCxbYpERna4S0JCuOJBGyYcMGe4KPebXGJMfMjh7TWvo263f88cfL399fMTExretpjmj28fHplC8XIYAAAggg4CkCJEI8ZSWZBwIIIIBAhwL3PLZGa7PbnzRysJtef2hyh321XPD6nB167cPcDq+/aHryIRMhpgaI2Qny/PPPd+rUGEckQnbs2GGLZJqdCGZsU/OjbSJk5MiRttBndHR0h3PrzgUvrv6jSmv2dHjrTUf9ucNrWi5YnD9Xi3fO7fD6k1IvPGQixBFrYXbrGFtTg6Mzp8YcaSLExGyeHbOO+9f66Og1nQ6xuAABBBBAAAEPFCAR4oGLypQQQAABBA4ucLgdIRWV9dq2s9Le+MDNI5WZ1rlTYGa+tkUff1mo4EA/ZXRzR4gZc+XKlbYmh/mL/cMPP6xRo0YdchmPNBFidoOYk0XMh2fzaoQ5Rtfs+ujJRMjhdoRU1VeouKrAxnPhkJ8oMTy1U4/0O9kvaOvetQrwC1RC6MF335iODrcjxBFrYV5lMjU3TBLivPPO02233XbY45CPNBGSnZ1td6CYE33++te/tjvJh0RIpx4dLkIAAQQQ8DIBEiFetuBMFwEEEEDg4AIVVQ266tdf219e+f00nXl852om/OHp9fp2bYkmj4nTrVdmdpvXFMc0J3i88847dneGKUaakJBw0P6OJBFiPqTPmjXL7h4wr0g89NBDGjp0aOs4XS242u0JH+bGXZU7NGvdI/aKKSlnaWz8lE4N8+yq+1VRW6bBMaN1WvplnbrnYBc5ai1MAsS89vSrX/1KZ5111iFfKTqSRMiWLVv029/+1hY/veSSS2xCpOUUITM3EiHdfgy4EQEEEEDAgwVIhHjw4jI1BBBAAIGuCdz1yGpt2LpPIUF+evTOsYqKOPwRrB8tKtTTr2+xg3z/pCRdemb3To1pidJ8qDUfnrdv366UlBRbxHLy5MntPtia1yDMdf/3f/8ncwxrZ4qlmntM8sQkOf75z3/aE2AOdfKLKyRCahqqNHP5PZYl0C9IV4y4XaEBzTtWDtU+zXlDq4sW218fyakxjloLs+vmmWee0dNPP213+ZidIVdffbVM7ZW2zRxJbNbE7NDpbI0Qs+7btm3TBx98YJNaJrl1zjnn2Oel5fjdljFIhHTtfwO4GgEEEEDAOwRIhHjHOjNLBBBAAIFOCCxcVqS/v7TJXpnaP1R//b+sQ95VUlan6+9ZYn9vjtv9822jFRcd2IlRDn9JTk6O7r//fi1btqy578hIJScntxa0bDlhxPzO/LxtYcyOTnxpGdkkV0wipaWgZtuIXCERYuL5Jv8Tfblzjg2tT0iifjj8lkPCmQKpplCqaTHBfXXxsJsU4BvUq2thBjfJkFdffdXWCTHJCtPS0tIUFtZcVLfl9J+W37UtWnuoI5P3n5R5PswrVWeeeeZBX78hEXLEjwEdIIAAAgh4oACJEA9cVKaEAAIIINB9gX/Mytani3e1djDjonSNGx6j2KjmJEfOzkp9vWpPuwKp5pUY82qMo1pVVZXmzp2rl19+WZs3bz6gW5PAMEUxzYff/v37t/7+UIkQsyNh8ODBmjRpksyRroMGDTrkaxqukggxk3pvy0vKLllt5xceEKWpA85VUsRABfk1H0dbVJWvjXuWa0nBvFaDy0fcppjgeEcthbq7Fi0BtOzgMWtpdnC0JD1afh8YGGh3/ZgdIxMmTGhNZhwuEWJ282RlZemEE07QlClTWuu7HGzSJEIc9ijQEQIIIICABwmQCPGgxWQqCCCAAAKOEXjmP1s0Z2Hz8a0tLbV/mPbuq1Xpvrp2P//xxRk6cZLjPnjvPwNTY6Lth2fzwXn/1x8cM2vX7OWTnNe1puibdsH1De1va4FU1pe3+7nZCRIfmuy0iRzpWpgdIhUVFWpsbLQxmmOIze6QtjU9nBY8HSOAAAIIIIBAqwCJEB4GBBBAAAEEDiKwZHWJ/vHqZpWV1x/UZ+TgKF13/kAlJTTvTqA5T8DU/jA1QA7V0qKG6eS0CxXqf/g6Is6LkJ4RQAABBBBAwJ0ESIS402oRKwIIIIBAjwpsz6/Uxm37lFdYpZ27qxUW4qfEviHqHx+siaNiFeDv26PxePNgpg5ISfVu7a0pUmlNsX09Jjq4j60JMih6tHx9WAtvfj6YOwIIIIAAAl0RIBHSFS2uRQABBBBAAAEEEEAAAQQQQAABtxYgEeLWy0fwCCCAAAIIIIAAAggggAACCCDQFQESIV3R4loEEEAAAQQQQAABBBBAAAEEEHBrARIhbr18BI8AAggggAACCCCAAAIIIIAAAl0RIBHSFS2uRQABBBBAAAEEEEAAAQQQQAABtxYgEeLWy0fwCCCAAAIIIIAAAggggAACCCDQFQESIV3R4loEEEAAAQQQQAABBBBAAAEEEHBrARIhbr18BI8AAggggAACCCCAAAIIIIAAAl0RIBHSFS2uRQABBBBAAAEEEEAAAQQQQAABtxYgEeLWy0fwCCCAAAIIIIAAAggggAACCCDQFQESIV3R4loEEEAAAQQQQAABBBBAAAEEEHBrARIhbr18BI8AAggggAACCCCAAAIIIIAAAl0RIBHSFS2uRQABBBBAAAEEEEAAAQQQQAABtxYgEeLWy0fwCCCAAAIIIIAAAggggAACCCDQFQESIV3R4loEEEAAAQQQQAABBBBAAAEEEHBrARIhbr18BI8AAggggAACCCCAAAIIIIAAAl0RIBHSFS2uRQABBBBAAAEEEEAAAQQQQAABtxYgEeLWy0fwCCCAAAIIIIAAAggggAACCCDQFQESIV3R4loEEEAAAQQQQAABBBBAAAEEEHBrARIhbr18BI8AAggggAACCCCAAAIIIIAAAl0RIBHSFS2uRQABBBBAAAEEEEAAAQQQQAABtxYgEeLWy0fwCCCAAAIIIIAAAggggAACCCDQFQESIV3R4loEEEAAAQQQQAABBBBAAAEEEHBrARIhbr18BI8AAggggAACCCCAAAIIIIAAAl0RIBHSFS2uRQABBBBAAAEEEEAAAQQQQAABtxYgEeLWy0fwCCCAAAIIIIAAAggggAACCCDQFQESIV3R4loEEEAAAQQQQAABBBBAAAEEEHBrARIhbr18BI8AAggggAACCCCAAAIIIIAAAl0RIBHSFS2uRQABBBBAAAEEEEAAAQQQQAABtxYgEeLWy0fwCCCAAAIIIIAAAggggAACCCDQFQESIV3R4loEEEAAAQQQQAABBBBAAAEEEHBrARIhbr18BI8AAggggAACCCCAAAIIIIAAAl0RIBHSFS2uRQABBBBAAAEEEEAAAQQQQAABtxYgEeLWy0fwCCCAAAIIIIAAAggggAACCCDQFQESIV3R4loEEEAAAQQQQAABBBBAAAEEEHBrARIhbr18BI8AAggggAACCCCAAAIIIIAAAl0RIBHSFS2uRQABBBBAAAEEEEAAAQQQQAABtxYgEeLWy0fwCCCAAAIIIIAAAggggAACCCDQFQESIV3R4loEEEAAAQQQQAABBBBAAAEEEHBrARIhbr18BI8AAggggAACCCCAAAIIIIAAAl0RIBHSFS2uRQABBBBAAAEEEEAAAQQQQAABtxYgEeLWy0fwCCCAAAIIIIAAAggggAACCCDQFQGPSIR8OOdTFRTu0lVXXNyVuXMtAggggAACCCCAAAIIIIAAAgh4mYBbJ0JycnL1xJPPq7q6WmPHjiYR4mUPL9NFAAEEEEAAAQQQQAABBBBAoKsCbpsIMbtANmzYpKuuvEQvvPiKoqKjSIR0dfW5HgEEEEAAAQQQQAABBBBAAAEvE3DbREjLOlVX12jmUy+QCPGyB5fpIoAAAggggAACCCCAAAIIHJnAG19/qvyKbbaTxLA0nT/xxCPr0E3uJhHiJgtFmAgggAACCCCAAAIIIIAAAgg4SuDhT/8hn6it7bprKh2om0/8saOGcNl+SIS47NIQGAIIIIAAAggggAACCCCAAAKOF3j1qzkqDPjEdhwXkmC/FlcV2q8JdSfpB9871fGDulCPJEJcaDEIBQEEEEAAAQQQQAABBBBAAAFnCzzy6dNS1CZFBcXpypG32+FeXP0nldYUS6WDdNOJ1zs7hF7t36sTIQ0NTdqxa1+vLgCDI4AAAggggAACCCCAAAIIINATAtU1jVq0Yre2Nb2nuJSddjfIpcN/YYf+99q/2V0hjXsyde7Ii7oUTmxUsCJCA7t0T29e7PWJkLr6ht70Z2wEEEAAAQQQQAABBBBAAAEEnCpQWFyjDxbka0PJEiUNX6fKfaGKTii2Y5pdIabZ3SCS+tVN09ljp3Y5nuAg/y7f01s3eHUipLfQGRcBBBBAAAEEEEAAAQQQQAABZwus3lyq9z/bqZzy1Rowep1CIsvtkE1NUvnueEXE72oXAsVSnb0iDuqf43MdBEk3CCCAAAIIIIAAAggggAACbi9gSkAs+LZI736Wr7KmLUodu1rhMWWt8wptGKBTM89RSnSKbNHUyhz7u4TQVI8vktqC4PY7Qtz+KWUCCCCAAAIIIIAAAggggAACCByhwL6Ken20sEAfLihQY9AuDRy/QpF9Slp7DfPpp1MHfV/JkelHOJL7304ixP3XkBkggAACCCCAAAIIIIAAAgh4qcDOXVV6Z36+Pl+yWwFhe5U2brVi+zcfhWtaeEAfTUmZrsExo71U6MBpkwjhUUAAAQQQQAABBBBAAAEEEEDAzQRWbijVu5/t1PL1exUUXq6BWesUl7pDPj7NEwn1j9D3kqZpeNwE+fr4utnsnBsuiRDn+tI7AggggAACCCCAAAIIIIAAAg4RqG9osjs/TP2P3PxKBYZUK3X0OiUMypGPT5MdI8gvREf1m6ox8cfK3zfAIeN6WickQjxtRZkPAggggAACCCCAAAIIIICARwmUlddpzsJCzVlQoNLyOvkH1mrAqI1KzMyWr1+jnaufr7+y+h6jCYkn2mQI7dACJEJ4OhBAAAEEEEAAAQQQQAABBBBwQYEdBab+x059sbRIdfWN8guoV9KwTUoZvlm+/vU2Yh8fXw2PG6/v9Z+msIBIF5yF64VEIsT11oSIEEAAAQQQQAABBBBAAAEEPFygqqZBe0prVVlVr7joIMVGBbbOeNm6vbb+h6kDYprZ9ZE4eItSR2+UX2BN63UZ0SN1TNJpig7u6+Fajp0eiRDHetIbAggggAACCCCAAAIIIIAAAocV+HJ5sR58cWO7a76XFaesIVG2/kdeYZX9nan70W/QdqWPWy/fgMrW65Mi0jUl+UzFhyYj3Q0BEiHdQOMWBBBAAAEEEEAAAQQQQAABBLojUFJWp+vvWXLYW00CJDEjX4PGb1CT/97Wa/uGJunopNOUGpnZnaG55zsBEiE8CggggAACCCCAAAIIIIAAAgj0kMDStSX649PrFRhSo/PODlRQWKVWrwjS0qX+NoK0IXuUMW6dav12tUYUFRSnyf1PVWZsltkn0kOReu4wJEI8d22ZGQIIIIAAAggggAACCCCAgAsJ1NY16qEXN2pb+WoNm/J1u8iKcpK07ouJmnLZm60/Dw0I18TEUzSyzyT5+vi60EzcOxQSIe69fkSPAAIIIIAAAggggAACCCDg4gI7d1XZ42/nLd6lRv99mnjunINGvGdHomKT8xXoF6xxCcdrbMIUBfj+r4iqi0/TbcIjEeI2S0WgCCCAAAIIIIAAAggggAACjhBYnD9XhRW52la6XmlRQ5UQlqJJiac4omuV15aqqr5ClXUVWr11l1ZtLtTuslL5B9UoMLhOQRHliowrsWOdnHqRkiMyNG/7G8op26i66mBNGDBBExNPUrB/qEPioZMDBUiE8FQggAACCCCAAAIIIIAAAgh4jYBJgizeOfeA+U7qf0q7ZEhdY62q6yttUsN8ra6vaP53Q8u///e1+ZoK1TfWdejY1GROg2m+7EdZ9yjEP0wLd7ynpYWfKdA3WDeMva/DPrjgyARIhByZH3cjgAACCCCAAAIIIIAAAgi4kcAzK3+nyrp9GhwzWrEhCdpTVahNJSvl6+On2OD45uRHQ4UaGusdOit/30Cb9PD3CVBJTXMh1IzokXbnR2lNsXbsy1ZG9AidkXGlQ8elswMFSITwVCCAAAIIIIAAAggggAACCHiFwK7KPM1a97Cdq3ktZXif8VpbtEQf57zWpfmbGh4mgRHkG6aKfX4q3CWVlfqrrjZQ9dWB9muf8ChNHt1fx4xKUlRIdGv/dQ01em3DYyquKjxgzP13pXQpKC7utACJkE5TcSECCCCAAAIIIIAAAggggIA7C5jdHk+tuNdOYeqAczW672St3P2l5m9vPqklJWKwwgMjFewfZhMdZgdHsF+oQgK+++ofptCACG3eXq6PFhZq4bIimZNgWpq/n4++lxWn06b0U2ZaxCGp9lQX6tOc2SqtLVZNfZWigmI1KGa0w+qUuPMa9UTsJEJ6QpkxEEAAAQQQQAABBBBAAAEEXELg1fWPqbBi+wGx9AtL1UVDf3LIGOvqGvXFt0U2AZKdW97uurjoQJ0yOUHTjumniDB/l5gnQRxagEQITwcCCCCAAAIIIIAAAggggIDXCMzLna1Vu75qn8gISdBp6ZcpNjjhAIf83dWas7BA87/ZrYrK9nVDRg6K1KnH9tPEUbHy9f2uAqrXSLrvREmEuO/aETkCCCCAAAIIIIAAAggggEAXBCrqyvTC6j/aQqhRQXEaGjdO/cIGKDEsVabuR0traGzSktUlNgGyelOpzEkvLS04yE/Hj++r04/rp/7xIV0YnUtdRYBEiKusBHEggAACCCCAAAIIeKzAorwPta+2RDUNVYoMjFVSRLo9sYKGAAI9KzB326taV7xUJfnxGuh7mrZslbKGRCs9Jcx+3buvTnMXFerjLwu1p7S2XXBJ8SGafmw/HT+xr0KC/Ho2cEZzqACJEIdy0hkCCCCAAAIIIIAAAu0FPtjyL3s05/7NbMMnGcLTgkDPCZhTWv699m8qyknSui8mHjDw4NRwbck1x+b+b/uHed1l/IgYmwAZlRnVc8EyklMFSIQ4lZfOEUAAAQQQQAABBLxZYFflDs1a94gliAyMUYh/uMxpEXWNtTYJYpIhNAQQ6BmB2Rtnase+bC15+2RVlUUoMtxfKf1ClVtQqbLy9rU/IsMDdNL34nXqMf1kCqHSPEuARIhnrSezQQABBBBAAAEEEHAhgdVFi/Vpzhs2oouG/tTWIpiz9RVt2LNM4QFRumb0nS4ULaEg4LkCW0vX6p3NL6i6PEzfvDXNTvSa8wbaY24/+KJAz83ean8Oxec+AAAgAElEQVSWlhSms6Ym6rjxfT0Xg5mJRAgPAQIIIIAAAggggAACThIwCQ+T+DDtshG/sCdSzN/+plbu/tIWarxy5O1OGpluEUCgrcA/1/xFJdW71VAVrUVvnGB/deuVmZo8Jk5fLi/Wgy9utD97/O5xio8NAs/DBUiEePgCMz0EEEAAAQQQQACB3hPYW7NbL63+iw0gLCBSIQFh2ltdpPrGOo3sM0knpp7fe8ExMgJeIrBy9yLN3/6Wne2xyWfo3y9Ga3t+pcJD/ZXaP1Q5OytVXlmvAYmh+tsvs7xExbunSSLEu9ef2SOAAAIIIIAAAgg4WWBx/lwt3jm33SjB/iG6YMiNdocIDQEEnCdQ21Btj8utrq+0dXquGPlLPf7yVn2+ZPcBg7bsEHFeNPTsKgIkQlxlJYgDAQQQQAABBBBAwCMF9tXu1fOrfn/A3GaM+a2C/EI8cs5MCgFXEViU94GWFMyz4ZyWfqkSAobrp/cvU1V1g8LD/DQgMUyZaeEakRGlMcOiXSVs4nCyAIkQJwPTPQIIIIAAAggggIB3C6zYtVCf5f7XIhyTfIYW7njP/vu4lLM0Jn6Kd+MwewScKFBRV6bnV/1BjU0Nig9N0sXDbtbjr2zW/K+bd4P87mcjNTQ9wokR0LWrCpAIcdWVIS4EEEAAAQQQQAABjxB4a9PT2l62ydYIuXb0XXZ3iNklEh3Ux27TpyGAgHMEPtz6sjbuWW47v3DoT1RRHKdfPbTKfj9pdKxuu3qIcwamV5cXIBHi8ktEgAgggAACCCCAAALuKmCKov5j+d1qamrUqL6TdcKAc7Wk4FMtyvvQTun8zBuUFJHurtMjbgRcVmBXZZ5mrXvYxjcoZpROT79ct/1lhS2MGuDvq0d+PUZ9YjgdxmUX0MmBkQhxMjDdI4AAAggggAACCHivwKaSFfpgy78twDmDr1Vq5BBbtPGZlfepsalRQ2LH6tSBl3gvEDNHwEkCr69/XPkVOfL18bM7r5Yur9MTr2Tb0S6YlqwfnJbipJHp1h0ESIS4wyoRIwIIIIAAAggggIBbCny0dZbW7/lW/r4BmjHmPvn5+Nl5vL/ln9pcskq+Pr66bvRvFOwf6pbzI2gEXFEge+9qvZf9kg1tbMIUje97ui2QWlZep5jIQD1+91i7K4TmvQIkQrx37Zk5AggggAACCCCAgFMFmvTk8ntkju/MiB6pMzKuaB3N1AwxtUNMOzb5TI1LOM6pkdA5At4iYAqjvrT6zyqrLVGgX7CuGfVrzXq3UO/M32kJbrkyU0ePifMWDuZ5CAESITwaCCCAAAIIIIAAAgg4QWBn+Vb9Z8M/bM+npF2kYXHj24zSZE+zoGiqE+Dp0qsFlu9aoM9z37YG5mSmRN8JuvmPy9XQ0GRPiDEnxdAQIBHCM4AAAggggAACCCCAgBMEFux4T98WfmZ7/lHWPQrxD2s3ytKC+VqY97792XmZM5QckeGEKOgSAe8RMLuvXlj9R1uHJzIwxtYGeeDJDVq5sVQ+PtKDt49RckKI94Aw00MKkAjh4UAAAQQQQAABBBBAwAkC/1zzF5VU71ZiWKo9unP/1rZoamZMlqanX+qEKOgSAe8R+GLHu1pW+LmdsDklZu/OZP3pmfX2+1OP6afrLhjoPRjM9LACJEJ4QBBAAAEEEEAAAQQQcLBAWc0e+5dp045Omq7x/U486AjmRBlzsgxFUx28AHTndQKmJoipDWJqhJjk43mDb9RPH1imopIahYX66/E7x9qvNASMAIkQngMEEEAAAQQQQAABBBws8G3h51qw413b66XDf6G4kISDjpC7b7Pe3PiU/d0xSafrqH5THRwJ3SHgHQIfbPmXNpWstJO9eNjNWrhIevm97fZ7sxPE7AihIdAiQCKEZwEBBBBAAAEEEEAAAQcLvLHxSeXt26LIoFhdNfKOw/b+/Krf26KpEYHRunrUr8zfKh0cDd0h4NkC+RU5en3943aSmbFjNCnuAv3sgWWqqW1UUkKIHrp9jK0RQkOARAjPAAIIIIAAAggggAACThAwBRtnrrhXTU2Nyoo/RsennHPYUZYWfqaFO96z15ybeb1SIgY5ISq6RMBzBWate1i7KvPk6+Nnk4nPvlqoL5YW2QmbU2LMaTE0BNoKsCOE5wEBBBBAAAEEEEAAAQcKbNizTHO2vtKc2Bj8I6VEDj5s722Lpg6OGa3T0i9zYDR0hYBnC5gaO6bWjmnm1bKEhuP0q4dW2e+PHhunW67I9GwAZtctARIh3WLjJgQQQAABBBBAAAEEDi7w4ZZ/a2PJCvn7BujHY34nHx/fDqk+3PqyNu5ZTtHUDqW4AIH/CZjCqKZAqimUGuwfqitH3KE7H9qgnJ2VCvD31eN3j1VMZCBkCBwgQCKEhwIBBBBAAAEEEEAAAQcJmNdhzGsx5vWYwTFZOq2TR+Lu2Jet2Rtn2iiOTjpN4/ud4KCI6AYBzxX4tvAzLfjutTLzCtru7EGa+doWO+EfnJaiC6Yle+7kmdkRCZAIOSI+bkYAAQQQQAABBBBA4H8CbU+BmTbwYg2NHddpHvOX7b01RRRN7bQYF3qzgHmlzBxRbZKO0UF9dMGgW3Tj75arorJefWKC9Mivx9hdITQEDiZAIoTnAgEEEEAAAQQQQAABBwl8nvuOlu/6wvZ2w5j7FOgX3OmelxV+ri++O3L3+4Ov04BIaht0Go8LvU7gs9z/asWuhXbeZ2Zcpc/mher9z/Pt97ddPUSTRsd6nQkT7rwAiZDOW3ElAggggAACCCCAAAKHFTB/oS6r2aOk8HSdP+SGLmmZv2w/teJeNTY1KiN6pM7IuKJL93MxAt4iYGqCvLj6T/ZkpsSwVE2OuUa/+PMKNTY22RNizEkxNAQOJ0AihOcDAQQQQAABBBBAAAEHCOypLtS/1vzN9nRs8hkal3B8l3s1p82YU2d85KMfZd1jC0DSEECgvcB72S8pe+9q+8OLh92sR58t0fot++Tr66O//TJLyQkhkCFwWAESITwgCCCAAAIIIIAAAgg4QGBpwXwtzHvf9nT5iP9TTHDfLveaV75Fb2x40t43OWm6JvQ7sct9cAMCniyQX5Gj19c/bqc4NG6cosqm6a/Pb7Dfn35coq4+N82Tp8/cHCRAIsRBkHSDAAIIIIAAAggg4N0Cr294XPnlOYoMitVVI+/oNgZFU7tNx41eIDBr3cPaVZknP19/XTbsl7rjz1tUVFKjsFB//eM34xQS5OcFCkzxSAVIhBypIPcjgAACCCCAAAIIeL1AVX2Fnl7xW+swLuE4HZt8ZrdNTLFVU3TVtHMGX6vUyCHd7osbEfAkAfPamHl9zDSzWypvzUi9+kGu/X7GRek6eXKCJ02XuThRgESIE3HpGgEEEEAAAQQQQMA7BNYVL9Xcba/ayZ6feYOSItK7PXFTNPXpFfepoale6dEjdGbGld3uixsR8BSBhsZ6e1xuRV2ZQvzDdW7aL3TT/atVV9+o1P6h+sttWfLx8ZTZMg9nC5AIcbYw/SOAAAIIIIAAAgh4vMD7W/6pzSWr7HG5M7LulY+P7xHN+aNts7S++FtbNPXa0XcpNCDiiPrjZgTcXWBJwTwtyvvATuOEAefp4/djtWh5sf3+D7eM0qAB4e4+ReLvQQESIT2IzVAIIIAAAggggAACnifQ0NSgmct/o/rGOg2JHatTB15yxJPcWb5N/9nwhO3ne/2naWLiyUfcJx0g4K4C1fWVdjeI2S0VHdRHE0Nn6O5H19rpTDmqj266bLC7To24e0mAREgvwTMsAggggAACCCCAgGcI5JRt1H83PWMnMz39UmXGZDlkYi1FU81ukOtG3yWJff8OgaUTtxOYv/1Nrdz9pY37rIxr9PCT1corrFJQoK8evXOsYiID3W5OBNy7AiRCetef0RFAAAEEEEAAAQTcXGD+9re0cvci+zqMeS3GvB7jiLZi1wJ9lvu27ersQdcoLWqoI7qlDwTcSmBvTZH+ueavampqVHJEhsJ2n6Nn/rPVzuGHZw7QuScludV8CNY1BEiEuMY6EAUCCCCAAAIIIICAmwo8u/J+W8AxOWKQzsu83mGzaF80dbjOzLjKYX3TEQLuIvDO5ue1tXSdrZdzbvrNuuuveaqorFefmCA9dudY+fmxU8pd1tKV4iQR4kqrQSwIIIAAAggggAACbiVQVJWvl9c+ZGM+LuVsjYk/1qHxm5NozIk0FE11KCuduYnAjn3Zmr1xpo12eNx4bVsyQXMWFtjvb79uqMaPiHGTmRCmqwmQCHG1FSEeBBBAAAEEEEAAAbcR+Dr/E321c46N96qRdygyKNahsedX5Oj19Y/bPif1P0WTEk9xaP90hoArC/x77d9UXFUoP19/Te93q371l01qapJGZ0bp7h8Pd+XQic3FBUiEuPgCER4CCCCAAAIIIICA6wq8uv5RFVbkKjY4QZeN+IVTAv332gdVXFVgj9A1R+ma3SE0BDxdwOyEMjuiTDOnJr33Rn+t37LPvgrz8B1jlNDHMbV4PN2R+R1cgEQITwYCCCCAAAIIIIAAAt0QqKqv0NMrfmvvHN/vBB2ddFo3eun4FlOI1RRkNe2sQVdpYBR/Ce9YjSvcWaChsd4el2tq74T4h2tY0/V6+MXmAqlnTe2vK85JdefpEbsLCJAIcYFFIAQEEEAAAQQQQAAB9xNYU/S1Psn5jw38wiE/UWK4cz6ctS2amhY1TGcPutr9sIgYgS4ItH3lbGrK+XrscX+VlNUqMjxAj901ViFBfl3ojUsROFCARAhPBQIIIIAAAggggAAC3RB4N/sFbdm7ViH+YfpR1m8kJ76y8nHO61pb9A1FU7uxTtziXgKV9eV6YdUfVN9Yp7iQBPlvv1D/mZNnJ/GTSwZp6sS+7jUhonVJARIhLrksBIUAAggggAACCCDgygINTQ16ctldMl+HxR2lU9J+4NRwCyq267X1j9kxTL2E7/Wf5tTx6ByB3hL4NOcNrS5abIc/qf81euDBUtXVNyq1f6j++n9ZvRUW43qYAIkQD1tQpoMAAggggAACCCDgfIGtpev0zubn7UBnZFyhjOiRTh+UoqlOJ2aAXhYwJ8S8vPZBNalJqZFDtGnBsVq8co+N6g+3jNKgAeG9HCHDe4oAiRBPWUnmgQACCCCAAAIIINBjAi1/tfbz8dOMMffJ3zfA6WOv2v2l5m1/045zZsaVSo8e4fQxGQCBnhT476ZnlVO2wb4CNjlyhv70RKEd3rwOY16LoSHgKAESIY6SpB8EEEAAAQQQQAABrxF4duX99kSL1MhMnTP4uh6Zd11jrZ5ZcZ/M19SoITpn0LU9Mi6DINATAjv2ZWv2xpl2qBFxk/TOrAzlFVbZwqimQKoplEpDwFECJEIcJUk/CCCAAAIIIIAAAl4hsKtyh2ate8TOdeqA72t036N7bN7mlBpzWo1pV4/6tSICo3tsbAZCwFkC5lUY80qMeTXG7K5KLr9G/5y9yw53+dmpOvuE/s4amn69VIBEiJcuPNNGAAEEEEAAAQQQ6J7AVzs/0tf5H9ubrx19l8ICIrvXUTfuapuEmZB4kib3P7UbvXALAq4l0PYo6nF9T9FTT0SpqqZBCX2C9fAdY+Tn5+NaARON2wuQCHH7JWQCCCCAAAIIIIAAAj0p8Mq6h7W7Mk99QhL1w+G39OTQdiyKpvY4OQM6UcAck/v8qj+oqr7cJhXrN/xAHy8qsiPe/ePhGp0Z5cTR6dpbBUiEeOvKM28EEEAAAQQQQACBLguYuiCmPohpvbUjwxwtaoq1mtZTJ9Z0GYobEOhAoLy2VOV1pVpfvFSrir5UU5M0NvpcPfq47L+PGhGjO64biiMCThEgEeIUVjpFAAEEEEAAAQQQ8ESBVbu/0rzts+3UfjD0Z0oIS+nxabYrmtqDxVp7fKIM6LECH2z5lzaVrGw3P1PvZuMnZ2lzTrl9Fca8EmNejaEh4AwBEiHOUKVPBBBAAAEEEEAAAY8U+O/mZ5VTukEh/mH6UdY9vTbHluN7TQAUTe21ZWDgbgh8nvuOlu/64qB3Ln7jdNVWBen7JyXp0jMHdKN3bkGgcwIkQjrnxFUIIIAAAggggAACXi5gahk8sexOqzCyzySdmHp+r4mYGiWmVolpE/qdqMlJ03stFgZGoCsCr294XPnlOUqLGmpPXCqrLdH87W/aLtbMn6ymsgF69M6xCgr07Uq3XItAlwRIhHSJi4sRQAABBBBAAAEEvFVgy941ejf7RTv9swZdrYFRw3qV4tX1j6qwIlehAeG6bvRvejUWBkegswKPLP2lvXRS/1M0KfEU+++Wn+WsHKpzRp2l48b37Wx3XIdAtwRIhHSLjZsQQAABBBBAAAEEvE3g45zXtbboGzvtG8c+IH/fgF4laHvkKEVTe3UpGLwLAm9vfk7bStdrcMxopUYOVVVDuRbueN/2ULTiFN13TXNyhIaAMwVIhDhTl74RQAABBBBAAAEEPESgSU+vuE9V9RV2J4jZEdLbrW3R1JTIwTp38I96OyTGR6BDgZZEyP4XVpZG6PzMn2hwcmyHfXABAkcqQCLkSAW5HwEEEEAAAQQQQMDjBQoqtuu19Y/ZeZraIKZGiCu0edvf1KrdX9pQKJrqCitCDIcT2Fm+TU/OfVsVe8OVmLlNgcHV9vKyohjtWT9ZD948FUAEekSAREiPMDMIAggggAACCCCAgDsLfJn3ob4p+NROwZwWY06NcYVWXFWgf6990IZyVL+pOibpdFcIixgQOEBgX+1evbLu71o2b6SKcpIUFOingYOqtHdPoAoKmi//062jlZ7iGv/dYgk9W4BEiGevL7NDAAEEEEAAAQQQcICASTaYpEN8aLIuHnaTA3p0XBctRVOD/UNt0VRfH07bcJwuPTlCwJy4ZJ5T89+hr2dPV01liKYc1Uc3XTZYm3L26dd/X22HmXFRuk6enOCIIekDgcMKkAjhAUEAAQQQQAABBBBA4DACFXVlenbl/faK7/WfpomJJ7uUlyngagq5mnZa+qUaHJPlUvERDALmtCVz6pJpq949R3v3+mrqxHj95JIMbcmt0O0PrrS/M4kRkyChIeBsARIhzhamfwQQQAABBBBAAAG3Flixa6E+y/2vncMlw25W39Akl5pPQ1O9LeRa21Ct5IhBOi/zepeKj2C8W2BpwXwtzGs+FSY1aohWzJ2sVRtL7fd9Y4O0e09NK9Ajvx6rxL7B3g3G7HtEgERIjzAzCAIIIIAAAggggIC7Cry16WltL9uksIBIXTv6Lpecxvztb2nl7kU2NoqmuuQSeWVQufs2662NT6tJTYoJ7quJEdfo3kc3q76+8QCPi6an6MJTk73SiUn3vACJkJ43Z0QEEEAAAQQQQAABNxEwtQ3+sfxuNTU1alTfyTphwLkuGXnboqnjEo7XsclnuGScBOU9AqU1e2xxVLNTKdAvWKcm3qjfPZqrfRX1ko907Ng+qq5tUFxUoIalR+qYcbwS4z1PR+/PlERI768BESCAAAIIIIAAAgi4qMCmkpX6YMu/bHRnD7pGaVFDXTRS6fX1jyu/IkcUTXXZJfKawOoaazRr3SMqqd4tH/no9LRr9fDMCuXvbj4u9+LTUnT+NHZ/eM0D4YITJRHigotCSAgggAACCCCAAAKuIfDRtllaX/yt/H0DNGPMffLz8XONwA4SxbripZq77VX7m+kDf6jM2DEuGyuBebJAk/67+TnllG6wk5zc/3S9+0Zfrc0us98fO66Pbr58sCcDMDc3ECAR4gaLRIgIIIAAAggggAACvSHQpCeX32O39mdEj9QZGVf0RhCdHrN90dQMnZc5o9P3ciECjhL4audH+jr/Y9tdZkyWNiycqAXfFtnvh2dE6jc/Hi4/Px9HDUc/CHRLgERIt9i4CQEEEEAAAQQQQMDTBXaWb9V/NvzDTvPktAs1PG6Cy0/ZnG5jTrkx7YqRv1R0EHUXXH7RPCjA7L1r9F72i3ZG5nQlv+3n6PUP8+335jSYP906WiHBrruryoOWgql0IEAihEcEAQQQQAABBBBAAIGDCCzY8Z6+LfzM/uZHWfcoxD/M5Z321hTppdV/tnGOTThOU5LPdPmYCdAzBEw9EFMc1RQYNnVqBtdfpSf+1ZwEiQjzt0kQc1wuDQFXECAR4gqrQAwIIIAAAggggAACLifwzzV/VUn1LvULG6CLhv7U5eI7VECvb3hC+eXb7Ekd12fdK18fX5eKvagyX+GBUfbDMs0zBMzrYyYJYk6K8fHx1cSIK/TQzDI1NDQpMMBX9/1shDJSwj1jsszCIwRcKhHy4ZxP9cGHze+TBQcH68YbrlZqasohoVesWK3nXni59fenTT9Z00890SMWhkkggAACCCCAAAII9J5AWc0evbD6jzaAo5Oma3w/9/n/Y5rirqbIq2mnDrxEQ2LH9h5km5EX58/V6t2LVVHXXDSzX1iqTk67QLHBCS4RH0F0T6BJTXpr49PK3bfZdjA25kw9+2yIKirr5eMj3X7tUB01IqZ7nXMXAk4ScJlEiEmCfLV4iW65+QZFRUXKfD9v/oJDJkNakibXXPVDZWWNVE5Orp548nmdMPVYkiFOeljoFgEEEEAAAQQQ8BaBZYWf64sd79rpXjr8VsWF9HObqbctmto/fKAuGPLjXo/dJEEW75x7QBxxIQm6cMhP7O4VmnsKmP+emP++mDY4apzeeSVTu/fU2O8vPztVZ5/Q3z0nRtQeLeASiZDS0jI99PCTOvec021Sw7Tq6hrNfOoFDRky+KCJjRdeas5yX3XFxa0LZH5WurdUM66/SsHBvH/m0U8uk0MAAQQQQAABBJwoMHvjTO3Yl63IwBhdNepXThzJOV1/nvuOlu/6ovnD6IjbFBMc75yBOtlrW8+JiadoZ/kWrS1eYu8+c9BVSo8a3smeuMyVBDbsWaY5W1+xISWEDdCy949Xdm65/f6EifG68ZIMVwqXWBBoFXCJRIh5xeXlWbMP2P1xuMTGoRIh+ydHWGsEEEAAAQQQQAABBLoiUNNQpZnL77G3ZMUfo+NTzunK7S5xraltYmqcmDYmfoqOSzmr1+LaV7tXz6/6vR1/Uv9TNCnxFPvvR5b+sjUmszMkPjRZCWEpSghNsV9pri2wqzJPs9Y9bIMMD4hSycqz9NXSCvv96CFRuvP6YfL15Zhc115F743OJRIh+78W07Ich/q5+X3LjpGpxx9jd5GYZMqb/32/9dUa711SZo4AAggggAACCCBwJAIb9yzXh1ub69Cdm3m9UiIGHUl3vXbvGxueVF75FvvayY9G/0Z+vv49FospnrmpZKXWFS+VOYa4pQ2OGa3UyKGqaijXwh3vHzYekxiJD0tWwncJkj4hiT0WPwMdXqCqvkKvrP27yutK7YVRRRfp3Q/r7L+TEkLsCTFBga5VpJc1RaCtgNsmQlpepykp2ds6n5iYaBIhPN8IIIAAAggggAACRyRgkiAmGeLvG6Afj/mdPQXDHVvb1xampV2soXHjnD6NzSWrtH7Pt9qyd02nxxrRZ6L2VBVqd9VOe/TqoZpZj76hSd/tGGnePRId1KfT43ChYwQamxpkTiYqrMi1HaY0nqmXXw6w/46OCNAfbx2tuOhAxwxGLwg4ScDlEyEbNmw6oOZHy24QY9JSD6QlMRITHUWNECc9LHSLAAIIIIAAAgh4ukBTU6NmrrhXZkeD2b1wWvplbjvlxqZGPfXdXBLD03ThkBudMJcm5e3bapMfJgliXitq22KD4zU07igNiztKn+e+bXeJtG3G1zibZuyLqgq0q3KH/ZBdWLlDxVUFMh+8D9WC/EIUb5Ij5pWasBT7ek1EYPQhr69tqLH9m50ySeHp9vpAP2oLduXBmLvtVbvTxyZBAidp1gtJamxssjtAHrh5lFL7cyxyVzy5tncEXCIR0tUaIeaEGHNsrjkxpu3xuofq51C05lzror3t/8e6d5aBURFAAAEEEEAAAQRcQaCwaovmF75kQ5nU9zylhTV/SHfXtrzkI20oXWTDPyP5JoX7xzpkKmV1Rdpavkw5FatVVd/8ekRLC/IN1YDwkRoYPkYxge1PDKlqKFNFfZkCfAMV6hepAN/DnxbT0NSgvbX52lOTp5LafBXX7NC+umKZI1sP1YL8whUb1F+xgf0VF9hfsUEpMgmT0rpd+nL3f1Rau6v11qjAeE3ue4GiAnq3mKxDFqUHOsnet0RLiptPU4ryS9Ynr05SVXWjPSb3p5dkaEh6eA9EwRCuKBAa4q+IUPfZCeQSiZCWo29/ePF5nTo1xpGJkPKqWld8jogJAQQQQAABBBBAoBcEvt71gdaVNCcOfjj4zg4/qPdCiF0asqy2WG9u/bu9Z1jM9zQx/owu3d/24qr6cm3Zt1xbSldoT01Bu378fPyVHD5EGZFjlBSWKV8nvk5U11ir4uo8FdfkqagqT0U1O1Veu+ew8woLiFJdQ61qGw/8I2jf4GSdnjqj2y7ecmNRdZ4+2P603aET7BelZe+doKKi5mKol52VoqkT+3oLBfM8iIApjEsipBuPhjkFZtu27a01PvYvlGq+nzd/gT1ZJiEh3h6ta9r+r8akpQ1od6RuN0LhFgQQQAABBBBAAAEvFXhx9R9VWrPHvjZx/pAbPEKh5ehasytixpjfdmlOdY012rhnha2Zkrtv8wH3Joalalif8cqMybJFWXurmVdyCszrNN/9x7z+UlFXdtBwjkk+XUclTNXSwvmtBVt/lHWPQvzDeit8lx+3vLZUr6z7u0yRVFN0N++rU7VpY/Nf/884PlFXfT/N5edAgAi0FXCJHSEtAZlkyLJlze8N7l/4tG0ipOV1mLbXm3tOm36ypp96IiuMAAIIIIAAAggggECXBdoeOXts8pkal3Bcl/twxRs2lqzQh1v+bUM7Je0Htl5HR21r6TptKP5W5t79W1RQrIbEjtOwuPEy/3bVZk402V2ZZxMkuWWbVVCRY7wgbvoAACAASURBVEM9e9A1Sosaqm2l6/X25ufsz9rWKnHV+fRWXA2N9bY4qkkumVaz5UR9vSjK/vuoETG6/doh8jHvxtAQcCMBl0qEuJEboSKAAAIIIIAAAgh4mMDSgvlamNd8pOvlI/5PMcGes9XfFE2trq9UfEiyTs+4XJFBMQesXn55jjbs+VYb9iw/oOipqelhip4OiR2r/uHu+df/mcvvsfMySRBTWNXsHjHJkJaWHJGhMfHHKj16hIc92Uc2nTlbX5E5gci0wLKj9MnbA+y/M1LCdd/PRigwwD1PVToyFe52dwESIe6+gsSPAAIIIIAAAggg4BAB81fv/PJtigyK1VUj73BIn67SyTubX9C20rWtJUb7hPTThMST1Te0v9YXm+THt/aVoLbN1PlIjRxiEyDp0cNl6oC4c/tgy78OOLXGzMfsZWhbetWcdDM24Tg7bz8fP3ee8hHHvqzwc32xo7k4alhjmua8MkZNTT72eNy/3JaliDD3fiaOGIgO3FaARIjbLh2BI4AAAggggAACCDhKwOyWMLsmTBuXcLyOTe5+UVFHxeSofnJKN+i/m589eHcmA7DfWw3mSNkhsWM0JG6cQv096xQQkwwxr3iYpI95rcfM1bwGZT7wry5arPrGulanEP9wZcUfrdF9j1awv/cdCWtqwry58SnrEeobq09mHa362gCFBPvp9z8fpeSEEEc9ovSDQI8LkAjpcXIGRAABBBBAAAEEEHA1gXXFSzV326s2rPMzb1BSRLqrhdjteBblfaAlBfMU7BeqE1LPs/3My5mt6obK1j5DA8I1PG6C3QVhdkR4Y6ttqNbK3V/apIgpCtrSTHHQ4XHjNS5hqkvXRHHkmplE0ax1D9tXifx9ArX0vRNUtidU5mSQe24cruEZkY4cjr4Q6HEBEiE9Ts6ACCCAAAIIIIAAAq4m0PLaRHdOVnG1uewfT8upMaYGxnmZzcfEtvwsLCBC09IuVkrkYFefRo/Gt6boa5s8Kq0pbjeuqR8yNmGKPVXIU5vZFfPq+kdVXNV8RPLWL6doR3Yf++8bL8nQCRO9M1HmqevtrfMiEeKtK8+8EUAAAQQQQAABBFoFnlx+t2obajQ0dpymDbzYo2TMB3qzK8QcDzsx8WQ7t6/zP7a7Ho5OOk3j+53gUfN15GSy967Rt4XzZQrJtm2m2Ko5VWhwTJYjh3OJvt7LfknZe1fbWPZsGqs1i5uL4557cpJ+eEZzoVQaAu4uQCLE3VeQ+BFAAAEEEEAAAQSOSGB72Ua9tekZ28f0gT9UZuyYI+rP1W5uO7/9Y/v+4Os0IDLT1UJ2uXhMXZFv8j/Vlr1r1NSmtGpkYIzGJEzRiD4TFOAb5HJxdzUgkyD7audH9ra6vQP01bvNRy1/LytOt16ZKU7J7aoo17uqAIkQV10Z4kIAAQQQQAABBBDoEYH529/Syt2L5OPjqxlZ9yrQL7hHxu3JQTaVrLQfcEuqd9lhY4Lj9b3+0zQ4ZnRPhuH2Y5naGUsL52td8RI1NNa3zse8UjWy7yR7/G5YgHvWzzBHCb+9+Tk7J5/aWC1441g1NvgpMy1C9/5kuAL8OSbX7R9gJtAqQCKEhwEBBBBAAAEEEEDAqwWeXXm/KurKlBwxSOdlXu/RFi01L6KC4jx6ns6enDllaNmuL7Rq95cy/25pvj5+yozN0lEJUxUX0s/ZYTis/5Lq3bY4al1jrfwUrEWzj1dtZaj6xgbpL78YrbBQjsl1GDYduYQAiRCXWAaCQAABBBBAAAEEEOgNgaKqfL289iE79HEpZ2lM/JTeCIMx3VTAFBZdU7RYywq/UFltSbtZpEQM0rh+xys1cohLz86clvPKur/bI4UlX62cO0WlhbE2+fGHn49SYl/P2yHl0gtCcD0iQCKkR5gZBAEEEEAAAQQQQMAVBb7J/0Rf7pxjQ7tq5B2KDIp1xTCJycUFmpoaZV4/+rbwM+2qzGsXbVxIgsbGH6chcePk5+Onirp9MjVHymr2KDE8VfGhyT0+u7VFS5Rfsc3WOyko36491YU2hpxvs7R9bbr8/Hx0309H2NdiaAh4ogCJEE9cVeaEAAIIIIAAAggg0CkBc0xoYUWuYoMTdNmIX3TqHi5C4HACufs269uC+cop29justCACCWHp2tjyYp2Pzd1Wk5Lv6zHUFuOit5/wL07UrRq/nj745svG6xjj2o+MpeGgCcKkAjxxFVlTggggAACCCCAAAIdClTWleuZlffZ68wRsuYoWRoCjhIorirQNwWfauOe5c1d+khtDpxpN8zYhCmaknyWo4Y+ZD+rdn+ledtnH/T3mxePUf6mgbpoeoouPLXnd6k4ffIMgEAbARIhPA4IIIAAAggggAACXimwtugbfZzzup37hUN+Yl9ToCHgaIHy2lIt2/W5Vu76Ug1NzSfNnJc5wxZT/TTnDWXvXe3oITvsLzwgSteMvtNe99zKB1ReV6pdW1LUt3q6br58cIf3cwEC7i5AIsTdV5D4EUAAAQQQQAABBLol8G72i9qyd43M0aczxvy2W31wEwKdFTCvyyzIe99e/qOsexTiH6aFO97T0sLPmneKmB0jTm4NtQHyC6yTqVty6fDmV8H+vfZvKq4qVFVhhm479XpbH4SGgKcLkAjx9BVmfggggAACCCDg9QJlNc2nWUQGxXi9RVuAJ5bdKXPqx7C48Tol7SJsEHCqgCmQOmvdI3aMjOiRCvYPlTnOeMe+bMWFJGpI7Bj5mP/nY/9v61eTIWn9mcmWtPu9b/trW353iH7mLl+tqvCvbQwtRyi3HKkcU3miLp8y3akGdI6AqwiQCHGVlSAOBBBAAAEEEEDAwQLmFItv8j9WUVWB7blPSD9NSDxZpjijt7dtpev09ubnLcPp6ZdrUMwobydh/j0gcKhCpaZYqrP+e7l3X5225VUoZ2el5q/YoISsBQqN2tdutpWlEQopOlU3XzSxBxQYAoHeFyAR0vtrQAQIIIAAAggggIDDBXJKN+i/m589aL/nDLpWqVFDHD6mO3X46fbZWr37K3uc6Ywx98nfN8CdwidWNxb4Ysc7dheI2amVHJGuzNixDkuCbN1Roe35lTbpkZNfoezcClVUNtclaWmh0WVKH5Wro7L87Y+WrqjXllUpmjx0kG74QYYbyxI6Ap0XIBHSeSuuRAABBBBAAAEE3EZgUd4HWlIwT8F+oToh9Twb97yc2apuqOSEFEnPrrxfFXVlSo3M1DmDr3ObdSVQBIyASW5km6THzgptzatUbn6ltuZVdIgT4O+junpTkOTAduMlGTphYnyHfXABAp4gQCLEE1aROSCAAAIIIIAAAvsJzN440/7VOTkiw55QYdrBfuaNcLsq8zRr3cN26lMHnKvRfSd7IwNz7iWBr1YUa/P2chUUVWvk4Cj7n+SEkING09TUpLzCam3b2fxqS87OCm3bWamS0trDRu/jI/XrE6zU/mFK6x+q1KTmr31igvTgixv15fLidvdPHhOnW6/M7CURhkWg5wVIhPS8OSMigAACCCCAAAJOFzC7QcyuEHMyxcTEk+14X+d/rKr6Ch2ddJrdFeKtbfHOuVqcP9dO/9rRdyksINJbKZh3Dwu8PmeHXvswt92oKf1CdetVmYqLCrS7OlrqeZjkR25+lerqGw8bZUiQn1L7h2pA/1Cl9Q9TalLz18AA30Pe99HCAm3Y1lwnZEhahKYd06+HJRgOgd4VIBHSu/6MjgACCCCAAAIIOEVge9lGvbXpmYP2/f3B12lApPf+9dfsBjG7QvqEJOqHw29xij+dIrC/wI7CKt3yx+X2x31jgxQZHqAdBVWqqW1QUKCf/dpRM/cNTAqzSY/05DAN6BeqhD7BHd3G7xFAYD8BEiE8EggggAACCCCAgIcKrC1eoo+3vdZudtMG/kBDY4/y0Bl3PC1TF8TUBzFtQuJJmtz/1I5v4goEHCDw6eJd+sesbNvT738+UoNTI/TIvzbpi6VFB/QeFOirAYmh9tUWs9vD7PBISwpVcJCfAyKhCwQQIBHCM4AAAggggAACCHiowMaSFfpwy7/bze6MjCuVET3CQ2fc8bRW7f5K87bPthf+YOjPlBCW0vFNXIGAAwQ+XFCgZ9/Yant66I4xti7IM//ZojkLC+2OkDOO79ea8OjXJ0SmzgcNAQScI0AixDmu9IoAAggggAACCPS6wCc5/9Gaoq8V5BeihqZ61TfWaUz8sTou5exej623Anh783PaVrre1gUx9UFoCPSEwPuf5+uV93JV/d3rL7FRgYoIC1D+7irV1jXq5MkJmnFRek+EwhgIICCJRAiPAQIIIIAAAggg4KECT6+4T1X15cqMyVJVQ6VyyzYpLqSfLh1+q4fO+PDTMomgmct/o4amBo3oM1EnpV7glQ5MuucETOHTJ1/douzccjuor6+PGhvbH1/bUiz1UCfH9Fy0jISA9wiQCPGetWamCCCAAAIIIOBFAiXVu/TPNX+1Mz459UJV1O/Tl3kf2u9njPmt3SXibS177xq9l/2infaZGVcpPXq4txEw3x4SqKlt1KwPtuv9zwtaEx9pSWH6ySUZyius0rotZSourVVmaoQmjIo95PG5PRQuwyDgdQIkQrxuyZkwAggggAACCHiDwPJdC/R57tt2qleP+rXK60r1+vrH7fenp1+uQTGjvIHBzrG2oUa7Knfoix3vaHflTvn5+GnGmPvk7xvgNQZMtOcEvl1boqde36LivbV2UFP49OLTUnTG8YnyofBHzy0EIyFwGAESITweCCCAAAIIIICABwq01MKICY7X5SNuU2NTo/6x7C5bK2R038maOuBcD5z1gVPaU12oD7b8S8VVha2/DPQL0kVDf6rY4ASvMGCSPSNQUlar52Zv01crilsHzBoSrRk/SFffmKCeCYJREECgUwIkQjrFxEUIIIAAAggggID7CLRNemTFH6PjU86xwf9307PKKdug2OB4XTbiNveZ0BFE+tr6x1RQsf2AHvqFDbDJEBoCRyrQ1CTNWVCgl9/frqrqBttdVHiArjo3TceO63Ok3XM/Agg4QYBEiBNQ6RIBBBBAAAEEEOhNgR37sjV740wbwtmDrlZa1DD776UF87Uw7337b2+oE1JVX6GnV/zWzndS/1M0KfEULc6fq8U759qf/SjrHoX4h/XmUjG2mwtsz6/UE69ktxZDNdM5cVK8rjg7VWGh/m4+O8JHwHMFSIR47toyMwQQQAABBBDwUoFFeR9oScE8O/sbxz7QWgvD1MmYte4R+/Pp6Zfa02Q8uZl6IK+s+7ud4tmDrlFa1FB7dK55bci0S4b9XH1D+3syAXNzkoA58vbVD3L13mf5avjuFJiEuGD95IcZGpYe6aRR6RYBBBwlQCLEUZL0gwACCCCAAAIIuIjArHUPa1dlnpIi0nV+5g1tomrSP5bdrbrGWo3sM0knpp7vIhE7L4yZy+9RTUOVTYIkhKWosCLXJkPMqTlmVwwNga4KrNiwVzNf3aLdJTX2Vj8/H51zYn9dMC1ZAf6+Xe2O6xFAoBcESIT0AjpDIoAAAggggAACzhIwH/rNh3/TJidN14R+J7Yb6u3Nz2tb6TpFB/XRFSN/6awwXKZfUyh1U8nKA+IZHDNap6Vf5jJxEojrC5hiqM+/uU1fLv9fMdSMlHD99NJBHH/r+stHhAi0EyARwgOBAAIIIIAAAgh4kMDGPcv14daX7YwuHnaT4kOT283u28LPtWDHu/Zn142+W6EBER40+4NP5flVv9e+2r32l5GBMXZnCEkQj192h03QFEP9aFGBXn53uyq/K4YaEuynS88coGlH9xMn4jqMmo4Q6DEBEiE9Rs1ACCCAAAIIIICA8wXmbntN64qXfPfqx72SfNoNal6ZMa/OmDZt4MUaGjvO+UH16ghNmrn8Xvt6TEb0SJ2RcUWvRsPg7iVwsGKo44bH6IYfpCsmMtC9JkO0CCDQKkAihIcBAQQQQAABBBDwIIGnV9ynqvpyWwjVFEQ9sP2vTsjwPhN0cuqFHjT7A6dijs41R+iaZmqimNooNAQ6EjDFUF/7MFfvzv9fMdSYqEBdd/5ATRwV29Ht/B4BBFxcgESIiy8Q4SGAAAIIIIAAAp0VKK4q1L/X/s1ebhIcJtFxsPZu9ovasneNIoNiddXIOzrbvVte93X+x/pq50c29mtG3anwwCi3nAdB95zA/sVQzasv5hWYS88aoJAgv54LhJEQQMBpAiRCnEZLxwgggAACCCCAQM8KLCv8Ql/seMcOel3WbxTqH37QAJbvWqDPc99uvs7D64S8vv5x5VfkKCY4XpePuK1nF4TR3EqgtLxOz83eqkXL/lcMNSkhRDdekqHMVM+vpeNWi0WwCByhAImQIwTkdgQQQAABBBBAwFUE/rvpWeWUbejwQ39RVb5eXvuQDfuUtIs0LG68q0zBoXG0PUFnTPwUHZdylkP7pzPPEDDFUOd+WWiLoVZU1dtJmWNwzz8lSd8/Kckej0tDAAHPEiAR4lnryWwQQAABBBBAwEsFGprq9eSy38h8zYo/RsennHNYCXPErkkUDIs7Sqek/cAj1cyxueb4XNPOGXytUiOHeOQ8mVTnBR58caO27qhQQVG1+vUJVkKfYFVW1WtTTnlrJ8PSI/XjizOU2De48x1zJQIIuJUAiRC3Wi6CRQABBBBAAAEEDi6Qu2+z3tz4lP3l2YOuVlrUsMNSvZf9krL3rrbH55rXYzyxfZLzH60p+lp+Pv66Yex99ivNewVMEuTL5f977WV/ibBQf11xdqpOnBTvvUjMHAEvESAR4iULzTQRQAABBBBAwLMFFua9r6UF8+Xr46sZY+5TgO/hj/ZcsWuhPsv9r0W5cuTtigqK8zigp1f8VlX1FRoQmanvD77O4+bHhLomcMWvvlZVdYMmj4lTSr9Q5RZUtiZGjh3XR1edm6ao8ICudcrVCCDglgIkQtxy2QgaAQQQQAABBBBoL/DKur9rd+VOJUdk6LzMGR3ytD1h5qTUCzSiz8QO73GnC9rOb0ryWRqbMMWdwidWBwtsya3Q7Q+utL2a4qcnTIzXvK936YlXsu3P/nTraKWnhDl4VLpDAAFXFSAR4qorQ1wIIIAAAggggEAnBSrry/XMivvs1UcnTdf4fid26s6WOiFDYsfq1IGXdOoed7no28LPtWDHuzbcy0b8QrHBCe4SOnE6QWBfRb2uuesb2/NF01N04anJen3ODr32Ya792XP3T1BEGK9OOYGeLhFwSQESIS65LASFAAIIIIAAAgh0XmDDnmWas/UVe8PFw25SfGhyp27+YMu/talkhUfWCXlr09PaXrZJ4YFRumbUnZ3y4CLPFdi8vVx3PrxKjY0HzjEzLVwP3DzKcyfPzBBA4AABEiE8FAgggAACCCCAgJsLzN32qtYVL1WQX4hmjLlXUueO+1y1+yvN2z7bzv7yEf+nmOC+bi7RHH7bE3TMKz/m1R+a9wps2LpP989cp+raBvnIR03mvNzvmqkVcutVmUpOCPFeIGaOgBcKkAjxwkVnyggggAACCCDgWQJPr7hPVfXlyozJ0vT0Szs9uf9n777jo6rSP45/0zshCSEEEkJNSAjN3nvBLq69FxS7ov4UGzbsDdeGroViRcWKoiKKDWFRSgokkEBoIZCQhCSEtJnf6x7ERQFNmUzuzHzO/pFk5t5znud97r72xbPnnlO+dYOm5Dxhrj+852kaFL9fs++184UrK5fqk+WvmRCP73OB+sXw//bbeb7aM7ac5Zv10MtLVN/gkL+/n647t58iIwLNcbn9UyKV1itKYaEB7RkCfSOAgA0FKITYcFIICQEEEEAAAQQQaK5AWe16vZn7lLn8qJQzlNFl7+beaq57ZfED2tJQpf4xQ3RcC4ooLRrEzRdbp+FYp+JYbdTQ+8xKGZrvCVhFkAdfWqKGRocC/P3Myo99BsX6HgQZI4DATgIUQngoEEAAAQQQQAABDxbYcVPQkUPGKjwwskXZzFjxlvI3Lfz9tZr7WnSvXS+ekvO4yrduVGJkL52RdrVdwySudhRYnFepR15Zuq0IEuCnWy9N0x4ZMe04Il0jgIAnCVAI8aTZIlYEEEAAAQQQQOAvAh8te0WrNucrNrSrzh94S4t9skvnalbRB+Y+bzhdpbq+Uq9lPWjy2a/7Mdon8agWm3CDZwv8lluux17LU1OTU0GB/hozcoAGp0V7dlJEjwACLhWgEOJSTjpDAAEEEEAAAQTcJ7DjpqBDux6kQ5JPbvHgFXWlmpz9mLnvsJ6nanD8AS3uw043ZG/8RbN+3wD2rAHXKSEi2U7hEUs7C8zL2qSnJuarybGtCHLnqHQN7NepnUelewQQ8DQBCiGeNmPEiwACCCCAAAII/C5gHQ9rHRNrtZP7Xape0QNaZbN9nxBrU1Frc1FPbp8VTFJhRU6LT9Dx5JyJfZuAVQR5cmK+HA6ngoP8dccVFEF4NhBAYNcCFEJ4MhBAAAEEEEAAAQ8V+HHNdP1WMlv+fv4aNfR+BfkHtyqTr1a+o6Vlv3n8PiEOp0MvLRyrBke9UmOHanjvc1vlwU2eJ/DTglL9+43lpggSGhKgu0alK613lOclQsQIIOAWAQohbmFmEAQQQAABBBBAwPUCb+U+rdLaYiVF9dVpqaNaPUBu6X81s+g9c/+5GaPVJSyx1X115I1rqwv1Qd4EE8LRvc5SetyeHRkOY7tJYPZ/N+r5t5fL6ZQ5CnfsVRnq17Nlmwa7KVSGQQABmwhQCLHJRBAGAggggAACCCDQEoEtjdV6ZdH95pYDegzXXt2OaMntf7p2c90mTcx+xHxm7TNi7TfiiW3O2hn67/pZJvTLh9yjsMAIT0yDmFsgMHNOiV5+r/CPIsj91w5Urx7MewsIuRQBnxSgEOKT007SCCCAAAIIIODpAtarLNYrLVY7O/16dQ1PalNKr2c9rKr6cvXpPFAn9r2oTX111M3vLHlGG7asNStarJUtNO8WsIogL00tNElGhAfq3qszKIJ495STHQIuE6AQ4jJKOkIAAQQQQAABBNwn8NWKd7R00/Z9Pe6V5Nemwb9eOVVLyuabfUauGvZAm/trUzCtuLm2sUb/WXSfuXPPbofpwB7Ht6IXbvEUgRk/rNer01aYcKMiAnXftQOV3C3cU8InTgQQ6GABCiEdPAEMjwACCCCAAAIItEbgP4vuV21jtcs2BV1S9qu+XvmuCeXs9BvUNbxHa8LqsHusopBVHLKatV+KtW8KzTsFPvl2naZ8UmSSi44KkvU6TPeuYd6ZLFkhgEC7CFAIaRdWOkUAAQQQQAABBNpPwNog1doo1WpH9TpDGXF7t3mwLQ1Vso7RtdpBSSdqj4RD2tynOzvYvkLGWtFinaBjnaRD8z6B979ao3e/WP1HEeTBGzKVEBfqfYmSEQIItKsAhZB25aVzBBBAAAEEEEDA9QK/lszWT2umm45HDhmr8EDXnJAxKftRVdaVqVd0uk7ud4nrA2/HHq3XYqzXY3pHZ+ikfhe340h03VEC1ioQazWI1WKjg3X/dQMpgnTUZDAuAh4uQCHEwyeQ8BFAAAEEEEDA9wQ+zH9Zq6uWKza0q84feIvLAL4pel85pfM8bp8Qa4NUa6NUqx3Wc4QGx+/vMhM6sofAjkWQ+JgQ3XfdQFk/aQgggEBrBCiEtEaNexBAAAEEEEAAgQ4SaHI2asKCsbJ+WsfcWsfduqrlbVqgL1e8bbo7a8B1SohIdlXX7dqPdWSudXSu1S4ddKcig6PbdTw6d6+AtSmqtTmq1azXYKyVINaKEBoCCCDQWgEKIa2V4z4EEEAAAQQQQKADBIo25+njZa+akU/ud6l6RQ9wWRQ77hNinbpinb7iCe2DvAlaW12oziFxujDzNk8ImRibIeB0Si+/VyjrmNztRRBrTxBrg1QaAggg0BYBCiFt0eNeBBBAAAEEEEDAzQI/rPlUC0p+MJuBXjVsnAL8Al0aweScx1WxdaNSOqXqlP4jXdp3e3TW4KjXSwvHyuF0aHD8ATqs56ntMQx9ulnAKoI8//Zyzf7vRjOydSqMdToMRRA3TwTDIeClAhRCvHRiSQsBBBBAAAEEvFPgzdwnVVZbYo6HtY6JdXWbtWqasjf+YgosVqHF7qevFFTkaHrBJMNwUr9L1Ds63dUk9Odmgb8WQZK7heu+awcqKsK1RT83p8VwCCBgIwEKITaaDEJBAAEEEEAAAQT+TmBLY7VeWXS/ueSAHsdpr26Huxwsv3yRZhS+afo9I+0aJUamuHwMV3a4vXBjFWysY3Ot43NpnivgcDj17zeW66cFpSaJXj0idO/VGYoIpwjiubNK5AjYT4BCiP3mhIgQQAABBBBAAIFdCiwpm6+vV041352dfr26hie5XKquqVYvLbzH9Lt/92O1d+KRLh/DlR2+lvWgqusrlRTVT6elXuHKrunLzQJNDqeempiveVmb/iiCWK/DhIUGuDkShkMAAW8XoBDi7TNMfggggAACCCDgNQIzVryl/E0LFRIQplFD75Xk1y65vZHzpDZtLVFyVD+NsHFxoXzrRk3JedwYeNLmru0yaR7eqVUEeezVPP2WW24y6dszUvdclUERxMPnlfARsKsAhRC7zgxxIYAAAggggAACfxGwVmpYKzZSY4dqeO9z283nu1UfavHGObbfJ2TRhh81e/UnxuHcjNHqEpbYbiZ03H4CTU1OPfba/4ogab2idNeV6QoNYSVI+6nTMwK+LUAhxLfnn+wRQAABBBBAwEMENmxZq3eWPGOiParXGcqI27vdIl9enqXPC6eY/v+VdqV6RPZpt7Ha0vHHy19VUWWewgIjdPmQba/z0DxLoKHRoUdeWarFeZUm8IH9OumOK9IVHOTvWYkQLQIIeJQAhRCPmi6CRQABBBBAAAFfFZi//lv9vPYLk/7IIWMVHhjZbhQ77hOyb/ejtW/i0e02Vms7bnI2asKCsbJ+psftpaN7Tu5dOgAAIABJREFUndnarrjPzQKFa6oVHxOqkGB/PfTyEuUs3/xHEeTOUekKCqQI4uYpYTgEfE6AQojPTTkJI4AAAggggIAnCkzLf0lrqgoUG5qg8wfe3O4pvJn7lMpq16tHVB/9K/XKdh+vpQOs2rxMHy37j7nNek3Iel2IZm+B975co69+Wq+KqgYTaFiIv2rrHZJTGpwWrTEjB1AEsfcUEh0CXiNAIcRrppJEEEAAAQQQQMBbBaxVDy8uuEsOp0NDux6sQ5JPavdUZ6/+WIs2/CTrWNqrho0z+4XYqf245jP9VvK9CWnU0PvMBrI0+wpYRZCpM1bvMsChAzqbIkhAQPts/mtfFSJDAIGOEqAQ0lHyjIsAAggggAACCDRTYGXlUn2y/DVz9cn9LlWv6AHNvLP1lxVU5Gh6wSTTgXVyjHWCjJ3am7lPqqy2RAkRyTprwHV2Co1YdiFgvQKzYEmF4mNDdMaxScotqNJ38zaYK63XYaxiCA0BBBBwlwCFEHdJMw4CCCCAAAIIINBKge9Xf6KFG3506+qMHfcJ2TvxSO3f/dhWRu/622oba/SfRfeZjvdJPEr7dT/G9YPQo0sFzhg9x/R35vBkUwix2q4+c+mgdIYAAgjsRoBCCI8GAggggAACCCBgc4E3cp7Qpq0blBTVV6eljnJbtG8vGa+NW9YpMbKXzki72m3j/tNAOaXz9E3R+9v+MZ12jRIjU/7pFr7vYIF7n88xm6LuPzROw9I7q77BoVfeX2GiGnP5AO2ZEdPBETI8Agj4kgCFEF+abXJFAAEEEEAAAY8T2NJYrVcW3W/iPqDHcdqr2+Fuy+GHNZ9qQckPbl2J0pzkvih8Q8vKF5t9QUYNvVcSe0s0x60jr7np0UVavX7LLkN4+b69FNMpqCPDY2wEEPAxAQohPjbhpIsAAggggAACniWQW/pfzSx6zwR9dvoN6hrew20JrKjM1afLJ5rxTu0/Uj07pbpt7N0P5NRLC++V9epOv5hBOr7PBTaIiRD+TuDvNkq96aJUs0qEhgACCLhTgEKIO7UZCwEEEEAAAQQQaKHAjMI3lV++6PfVD9v2xXBXa3DU6cUFd5vhrJUo1oqUjm7FNUV6b+nzJowjU07XwC77dHRIjP83At/P36hn31xuroiOCtIdl6erscmhiPBAxUYHKywkAD8EEEDA7QIUQtxOzoAIIIAAAggggEBzBf63+iE1dqiG9z63uTe67Lp3lvxbG7asUbeInjpzwLUu67e1Hf2y7ivNK55pbr98yD0KC4xobVfc184CC5dW6OH/LJXD4TQFj3E3ZKpnYng7j0r3CCCAwD8LUAj5ZyOuQAABBBBAAAEEOkTAKkBYhQirHd3rTKXH7eX2OH5cM12/lcw241417AEF+Ye4PYYdB5y69Dmtr1mluLAEnZdxc4fGwuC7F1ixpkZ3PpOthkaHAgP8dM/VAzWgTxRkCCCAgC0EKITYYhoIAgEEEEAAAQQQ2Fngv+tnac7aGeaLkUPGKjww0u1MKyuX6pPlr5lxT+53qXpFD3B7DNsH3PFI32EJh+jgpBM7LBYG3r1ASelW3T4+S1U1jfLzk269dID2yuRUGJ4ZBBCwjwCFEPvMBZEggAACCCCAAAJ/Evggf4LWVhUqNjRB5w/smNUPO+4TskfCoToo6YQOmyVrrxRrzxSrndr/cvXs1L/DYmHgXQtYxY9bn1ys0vI6c8FVZ/XVEft1hQsBBBCwlQCFEFtNB8EggAACCCCAAALbBBoc9Xpp4Vg5nA4N7XqwDkk+qcNotr+O0jU8SWenX99hcXy9cqqWlM1XgF+grhx2v/lJs49AXb1Dd/87WyvW1mwrVh3ZQ+ed2NM+ARIJAggg8LsAhRAeBQQQQAABBBBAwIYCKyqX6NPlr5vIOvqVlJ/XfqH56781sXTkPiH/WXSfahtrlBKdplP6XWbDWfPdkKwNUR+YsETZyyoNwiF7xeu68/r5LgiZI4CArQUohNh6eggOAQQQQAABBHxVYPbqj7Vow0/y9/PXVcPGdejqh1Wb8/XRslfMVJzY92L16Zzh9mkprS3WW7lPb/tHdvLJGtr1ILfHwIC7F7COyLWOyrVaZv9o3X1luvz9/SBDAAEEbClAIcSW00JQCCCAAAIIIODrAlNyHlf51o1Kiuqn01Kv6FCOJmejXlxwV4e+pvNryWz9tGa6cbhg4P8pJjS+Q00Y/H8Cb3++StO+Xms+6N0jQg9cn6mQYH+IEEAAAdsKUAix7dQQGAIIIIAAAgj4qkBVfYVez3rIpH9gj+O1Z7fDOpzivbwXVFy9Ul3CEnVuxmi3xzMt/2WtqVquyOBoXTroTrePz4C7Fpj1ywa9+G6B+TKhS6gevnGQoiLYu4XnBQEE7C1AIcTe80N0CCCAAAIIIOCDAjml8/RN0fsm87PTb1DX8B4drjBn3Zf6b/E3Jo5RQ+9TSECY22LacePYzPj9dETP09w2NgPtXmDh0go99PISOZ0yxY/Hbh6sLjEhkCGAAAK2F7BVIWTGl7P0xYyZBi00NFRXX3mJUlKS/xZxx3usC48bfpSGH3uE7eEJEAEEEEAAAQQQ2J3AF4VvaFn5YlNssIoOdmirq5brw/yXTSgn9L1QfTtnui2sHTeOdffYbkvSwwZavqpaY5/NUUOjw7wG88B1meqdFOFhWRAuAgj4qoBtCiFWQeOXufM1+oYrFR3dSdbf3373498WQyZOfkeVFZUadcXFCg2l+uyrDzF5I4AAAggg4F0CTr208F7VNdUqNXaohvc+1xbp7bhPyJCuB+jQ5FPdFtfs1R9p0Yafzcaxo4beryD/YLeNzUA7C5SUbtVtT2WpprZRAf5+uuvKdLNBKg0BBBDwFAFbFEIqKzfr6WcmaMQpx2vIkG3/78LWrXV66eWJSkvrv8sVHosWZevDjz//o3DiKeDEiQACCCCAAAII/J1ASc1qvbv0WXPJ0b3OVHrcXrYB+yBvgtZWFyouLEHnZdzstrgmZz+qiroydY/srdPTrnLbuAy0s0BlVYPGPJ2l0vI6+flJoy9M1f5D46BCAAEEPErAFoUQq6jx1jvTdlr9sbsVH/9UJPGoGSBYBBBAAAEEEEBgB4F5xd/ol3Vfmk9GDhmr8MBI2/jMXfe15hZ/beJx1z4h1fWVei3rQTPm/j2Ga+9uvALdUQ9EXb1Dt4/P0uriLSaEC05O0cmHd++ocBgXAQQQaLWALQohf30tZns2u/t8+wqSww87yLw+U15eYW7p0zuF12Ra/ShwIwIIIIAAAgjYQeD9vBe1rnqF21ddNCf3tVWF+iB/grn0uD7nqX/MkObc1qZrFm+co+9WfWj6ODv9enUNT2pTf9zcOoEmh1PjJixR9rJK08Hwg7rpsn/1bl1n3IUAAgh0sIBHFkKKilbrhQmvG7rtG6puL4706tVTF194dgezMjwCCCCAAAIIINBygR1PRxmWcLAOTjqp5Z204x0Op0MvLrhL1n4hg+L30+FuOL3l0+UTtaIyV2GBEbp8yD3tmB1d/53AU5PyNWdhmbnEehXGeiXGejWGhgACCHiigO0LIXl5y3Za5bG9EGKtCNnxhJjdvWKzu4lpanKqtKLWE+eNmBFAAAEEEEDACwXW1uTpx41vm8wOTThf3cL62S7Lb0sma0NtoToFddFxPa5t1/iswsuHqx5Ro7NeKRGDtV88x+a2K/huOv94VrG+/nmD+bZvcoSuv6Cv2SSVhgACCGwXCA8LVFS452xkbYtCSEv3CNnV5qrWBLSmEFJdW8/TiwACCCCAAAII2EJgbslnWlox15yOcm7/uxXgF2iLuHYMYnHZbC0onWk+OrPvbQprxz1MircU6qvV21YBH9z9dPWJav9XcWwH3sEBzZq7UW99ttpE0T0hTLdfnqqwkIAOjorhEUDAbgL+/n4UQlo6KdtXeJx79mnNOjVmd5ulcpJMS+W5HgEEEEAAAQTsJDA5+zFV1JUqKaqfTku9wk6h/RHLuuqVej/vBfP3sb3PUVrssHaL86e1n+vX9d+Z/q3XYqzXY2juE5ifXa7HXlsqp1PqEhOiR0YPUnRUkPsCYCQEEECgnQRssSLEys06IWblylV/HIf7141Srb+tjVG37wny19Uf21eJ7LfvXrs8bred/OgWAQQQQAABBBBwiUBVfYVez3rI9HVgj+O1Z7fDXNKvqzvZcZ+QgV320ZEpp7t6iD/6eyv3aZXWFqtreA+dnX5Du41DxzsLLC2s0n0v5KixyamoiEA9fOMgJXQJhQoBBBDwCgHbFEK2F0MWLFhsYGNiOv9RFLH+/mshxPrMKoa8NvGtPybiuOFHUQTxiseSJBBAAAEEEPA9gezSuZpV9IFJ/Jz0GxQf3sO2CB8t+49WbV6m6JA4XZR5W7vEWdtYo/8sus/0vVe3w3VAj+PaZRw63Vlg3YZajXkqS7V1TQoK9NeDN2SqdxKrcXhWEEDAewRsVQjxHlYyQQABBBBAAAEEWibweeEULS/PUkhAmEYN3VYAsGubv36Wfl47w4Q3cvDdCg+KcnmoS8p+1dcr3zX9/ivtSvWI7OPyMehwZ4Hyynrd9nSWrJ/WO/+3Xz5AQwd0hgoBBBDwKgEKIV41nSSDAAIIIIAAAp4p4NRLC+9VXVOt2XPD2nvDzm19zSpNXfqcCfHoXmcpPW5Pl4c7Y8Vbyt+0UEH+wRo19H6zgSytfQWsFSDWShBrRYjVrjuvnw7ZK759B6V3BBBAoAMEKIR0ADpDIoAAAggggAACOwq4o7DgSnFrn5CXFo5Vg6Ne6XF76eheZ7qye0n/Kwz16TxQJ/a9yMX9091fBay9QKw9Qay9Qax29vE99a+j7ft6FjOIAAIItEWAQkhb9LgXAQQQQAABBBBwgcC84pn6Zd1XpqeRQ8YqvB2PpHVBuKaLj5e/qqLKPPNajPV6jCtbSc1qvbv0WdPl4T1P06D4/VzZPX39RcA6FcY6HcY6JcZqR+zbVVed3RcnBBBAwGsFKIR47dSSGAIIIIAAAgh4isB7eS+ouHql4sISdF7GzR4R9q8ls/XTmukm1oszx6hTSKzL4t6xMHTpoDsVGRztsr7paGeBVz9YoRk/rjdf7JUZo1svTZOfnx9UCCCAgNcKUAjx2qklMQQQQAABBBDwBAHr9RLrNRPrdZNhCQfr4KSTPCFs7bhq46iUM5TRZW+Xxb29MNQ5NF4XDvw/l/VLRzsLfPrtOk3+pMh8MaBPlO65eqACAyiC8KwggIB3C1AI8e75JTsEEEAAAQQQsLlAQUWOphdMMlGe0v8ypXRKs3nE28Nz6sUFd5t9QgbE7qFjep/tkrit/l5ccJfpa0jXA3Vo8iku6ZdOdhaYs7BMT0/Ol/VqTPeuYXrkpkEKCwmACgEEEPB6AQohXj/FJIgAAggggAACdhb4dtWHyto4RwF+gbpy2P3mp6e0T5e/rhWVS1y6T4h1hLB1lLDVTu53qXpFD/AUDtvHWbxxq5avqjZx+vv56dk3l6nJ4VRMdLAeHT3I/KQhgAACviBAIcQXZpkcEUAAAQQQQMC2ApOyH1VlXZmSo/ppROoVto1zV4EtKPleP6z5zHx1Yeat6hzSpc3xf1P0vnJK53lkYajNybdjB+99uUZTZ6zeaYSIsEA9dGOmWRFCQwABBHxFgEKIr8w0eSKAAAIIIICA7QSq6iv0etZDJq4DexyvPbsdZrsY/y6gjVvW6u0lz5hLjkj5lzK77Nvm+F/LelDV9ZVK7tRfI/pf3ub+6ED66bdSjZ+ybJcU5xzfU6dxTC6PCQII+JgAhRAfm3DSRQABBBBAAAH7CGRt/EXfrppmAjon/QbFh/ewT3DNiuR/+4Skxg7V8N7nNuuu3V20aWuJ3sh50nx9UNKJ2iPhkDb1x83bBF55v1Bf/lSi2Ohg3X1VhvnsgRdztamyXscemKCRp/eBCgEEEPApAQohPjXdJIsAAggggAACdhKYXjBZBRXZCgkI06ih99kptGbH8lnBJBVW5LgkhwUlP+iHNZ+asc/LuElxYd2aHQcX7l7gidfzNHfxJvXtGalHRg8yF455OksFq6q17+BY3XKJp2zQyywjgAACrhGgEOIaR3pBAAEEEEAAAQRaKPC/1RRpscN0bO9zWni/PS5fuOFHfb/6ExPM+QNvUWxo11YH9tGyV7Rqc77CAiN0+ZB7Wt0PN/5ZYPrsdZr4UZFCggO0z6AY8+W8rHLV1Tfpsn/11vCDKDjxzCCAgG8JUAjxrfkmWwQQQAABBBCwiUBxdZHey3veRHN0r7OUHrenTSJrWRiltcV6K/dpc9NhPUdocPz+Levg96ubnI2asGCsrJ8ZXfbWUSlntKofbvqzgHUqzD3P5ihvZdVONMndwnXTxalKSmCjVJ4bBBDwLQEKIb4132SLAAIIIIAAAjYRmLvua80t/tpEM3LIWIUHRtokspaH8dLCe1TXVKt+MYN0fJ8LWt6BpKLNefp42avm3uP6nK/+MYNb1Q83/U/A6XTqidfzNS9rk+QnJcaHqbHRYS4Y2C9apxzRnSIIDwwCCPikAIUQn5x2kkYAAQQQQACBjhZ4b+nzKq4pMvtgWPtheHL7vHCKlpdntWmfkO9Xf6qFG34wDNZ+Kda+KbTWCzid0nNvLdf38zeaTg4YFqcbL0iVn1/r++ROBBBAwFsEKIR4y0ySBwIIIIAAAgh4jECDo14vLrjLxDss4RAdnHSix8S+q0AXb/xZ3636yHzV2k1Op+Q8ofKtG5QYkaIzBlzj0R52CP6lqYWaOafEhLJHeoxuG5kmf3+qIHaYG2JAAIGOF6AQ0vFzQAQIIIAAAggg4GMC1kkx1okxVjul/0ildEr1aIEdj709NPlkDel6UIvyqa6v1GtZD5p79u1+tPZNPLpF93PxnwWmfFKkT75dZz4cnBqt269IV2AARRCeEwQQQGC7AIUQngUEEEAAAQQQQMDNArNWTVP2xl8U4BeoK4fdb356etu+T0ifzgN1Yt+LWpROdulczSr6wNxz5oBr1S2iZ4vu5+L/CUybuVZvT19lPuifEqn7rhmooCB/iBBAAAEEdhCgEMLjgAACCCCAAAIIuFngtayHVF1foeSofhqReoWbR2+f4b4ofFPLyhf9vk/IvTK7czazWatjrFUy1r4go4a27N5mDuETl1mvwlivxFgtpXu4xl2fqdCQAJ/InSQRQACBlghQCGmJFtcigAACCCCAAAJtFKioK9Xk7MdMLwf2OF57djusjT3a4/asjb/o21XTTDDnpN+g+PAezQrM4XTopYVjZe2bkhozRMP7nNes+7jozwLWpqjW5qjWJqmJ8aF66MZBigz3/JVGzDMCCCDQHgIUQtpDlT4RQAABBBBAAIHdCCzeOEffrfrw94LBjYoP7+4VVuVbN2pKzuMmF2vzV2sT2Oa0ddUr9X7eC+bSo3qdoYy4vZtzG9fsIGAdj/vE63mmCBLXOVgPjx6kmE7BGCGAAAII7EaAQgiPBgIIIIAAAggg4EaBzwomqbAiR2GBkbp8yFg3jtz+Q72y+AFtaahS7+h0ndTvkmYNOGfdl/pv8Tfm2suH3KOwwIhm3cdF2wQW51fqoZeWqMnhVKfIID184yB1jQuBBwEEEEDgbwQohPB4IIAAAggggAACbhLY8TWQtNhhOrb3OW4a2T3DfLnibeVtWqAg/2BdNeyBZu0T8s6Sf2vDljWKC+tmjt6lNV8gt2Czxk1YooZGh3kN5oHrM5WUENb8DrgSAQQQ8FEBCiE+OvGkjQACCCCAAALuF9jxNZCje52l9Lg93R9EO46YUzpP3xS9b0Y4a8B1SohI/tvR6ppqZZ02Y7U9Eg7VQUkntGN03tV14eoajX0uW3X1DrMhqrUxqrVBKg0BBBBA4J8FKIT8sxFXIIAAAggggAACLhH4Zd1Xmlc80/Q1cshYhQdGuqRfu3RSWVemSdmPmnCasxGstXrEWkViNev0HOsUHdo/CxSt26Kxz2Zry9YmBQX6695rM5SaEvXPN3IFAggggIARoBDCg4AAAggggAACCLhJYOrS57S+ZpVXvwayfZ+QlE5pOqX/ZX8r+9XKd7S07DfzKs2ooffL38/fTTPhucMUb9yqO8ZnqXpLowL8/XTHqHQNTo323ISIHAEEEOgAAQohHYDOkAgggAACCCDgewI7vgZinahinazija0lxY3/LLpPtY01Ldpc1RvNmptTWUWdbn86W+Wb6+XnJ91ySZr2GRTb3Nu5DgEEEEDgdwEKITwKCCCAAAIIIICAGwSWl2fp88IpZqRT+o9USqdUN4zq/iFyy/6rmSvfMwOfMeAaJUak7DKIjVvW6u0lz5jvDk0+RUO6Huj+YD1oRKv4cdcz2dqwqc5Efd15/XTIXvEelAGhIoAAAvYRoBBin7kgEgQQQAABBBDwYoFZRR8ou3SuAvwCdeWw+81Pb2xV9eV6Pethk9r+PYZr725H7DLN+eu/1c9rvzDfXZh5qzqHdPFGDpfkZL0GY70OY70WY7XLTuut4Qd3c0nfdIIAAgj4ogCFEF+cdXJGAAEEEEAAAbcLvJb1kKrrK5Tcqb9G9L/c7eO7c8CJWQ9rc3353+b6Qf4Era0qVGRwtC4ddKc7w/OosbbWNemuf2fL2iDVamcOT9YZxyZ5VA4EiwACCNhNgEKI3WaEeBBAAAEEEEDA6wQqtm7U5JzHTV4HJp2gPRMO9bocd0xo5sqpyi2bb1a9XDVs3E6boDY46vXSwrFyOB0aHL+/Dus5wqs9WpucdTTufS/kaFlRtenCWgVirQahIYAAAgi0TYBCSNv8uBsBBBBAAAEEEPhHgUUbftLs1R+b685Jv1Hx4d3/8R5PvsA6CcbaNNVqp6ddpe6Rf/7He2FFjj4rmGS+P7HvxerTOcOT022X2BubnHrgxVzlFmw2/Vv7gVj7gtAQQAABBNouQCGk7Yb0gAACCCCAAAII/K3Ap8snakVlrsICI3X5kLFer7WloUrWMbpW26/7Mdon8ag/5fztqg+VtXGOWSliHZtrHZ9L+59Ak8Opx17J029Lys2H1skwt1ySKj/rqBgaAggggECbBSiEtJmQDhBAAAEEEEAAgV0L1DRUaX3NKs0ofENNzialxQ7Tsb3P8QmuSdmPqrKuTElRfXVa6qg/5fxa1oOqrq/c5Xc+gfM3STqdTj3xer7mZW0yVw1OjdYdo9IV4E8RxNefDfJHAAHXCVAIcZ0lPSGAAAIIIIAAAn8ILCtfrC8K3/iTSLeIZJ054DqfUPqm6H3llM7b6ZScirpSTc5+zBgc2ON47dntMJ/waG6Sz765XN/P32gu758SqfuuGaigIP/m3s51CCCAAALNEKAQ0gwkLkEAAQQQQAABBFoiUN1QqdcWP7jLW4YlHKyDk05qSXceeW3epgX6csXbJnZrRYi1MsRqvrZfSksm79VpKzTjh/Xmlj7JEaYIEhoS0JIuuBYBBBBAoBkCFEKagcQlCCCAAAIIIIBASwR2XA1yVMqZpgjw7aoPVLQ532yUam2Y6u1tx31CrD1CrL1CrPbp8te1onKJwoOiNHLw3d7O0Oz83vlitT74ao25vkdCmB66cZDCQymCNBuQCxFAAIEWCFAIaQEWlyKAAAIIIIAAAs0RWFDyg35Y86m59PIh9ygsMEI/rZmuX0tmKyQgTKOG3tecbjz+mik5j6t860b1iOyjf6VdafJ5fsEdanI0Kj1uTx3d6yyPz9EVCVirQKzVIFbrGhuih0cPUqfIIFd0TR8IIIAAArsQoBDCY4EAAggggAACCLhYoLi6SO/lPW967ds5U6GB4Wbj0DVVBerbeaBO6HuRi0e0Z3ffrpqmrI2/mNNhrho2TuuqV+rD/JdNsMN7n6vU2KH2DNyNUc2cU6KXphaaEWM6Bevh0ZmK6xzixggYCgEEEPA9AQohvjfnZIwAAggggAAC7SzQ0FSnSTmPaEtDzU4j7dv9aO2beHQ7R2CP7nd8RWhE/8vNq0G/lcw2wVmrYqzVMb7cfl5QpvFT8uV0SpHhgeZ1mMT4UF8mIXcEEEDALQIUQtzCzCAIIIAAAggg4EsCVfUVmpz9qJqcDvn7+8v6T3RIrPrFDPaZIog133VNtXpp4T1m6vfudoQKK3NVVrteCRHJOstHTs/Z3XNvHY/75MR8ORxOsyHquOszldI93Jf+a0KuCCCAQIcJUAjpMHoGRgABBBBAAAFvFfhk+WtaWbnUpHd2+vXqGp7kran+Y15v5j6pstoSdQ6NV8XWbcfC7rh56j924CUXTP6kSEsLq1S8sVa9uocrt6BKDqdTIcH+Gnt1hlJTorwkU9JAAAEE7C9AIcT+c0SECCCAAAIIIOBBAsvLs/R54RQT8eD4/XVYzxEeFL3rQ/1u1UdavPFnySnJb1v/p6ddre6RvVw/mE17fGpSvuYsLNspugB/P1MEyejbyaaRExYCCCDgnQIUQrxzXskKAQQQQAABBDpAoNHRoInZ1t4gVeakmIsyxyg4wLc3vvyi8A3lly+S3/YqiPx03sDRigvt1gEz5P4h81dW6c5nss3A8bEhGtgvWt/N22D+TusVpXE3ZLo/KEZEAAEEfFyAQoiPPwCkjwACCCCAAAKuE7COzLWOzrXaMb3P1oDYPVzXuQf2NLf4a81d9/VOkceFJeiMtGsUHOD9G4N+NrtYkz5aaQyev3sPczzui+8UaNbcDYoIC9TEh/b2wJklZAQQQMCzBSiEePb8ET0CCCCAAAII2ETA2gT0rSXj5XQ6lBiZYv6h7+ttWv5L5sjgTsEx2ifxaK2rLlRu2XzDckr/y5TSKc3riaxNUR9/Lc/kee81GYqPDdV7X64xq0J69YjQ47cM9noDEkQAAQTsJkAhxG4zQjwIIIAAAggg4JEC7y59ViU1q03sFwz8P8WExntkHq4M+t+/3mq62/HI4F195sox7dbX+tKtuu7BBbsM65gDEnT5GX3sFjKl2zTHAAAgAElEQVTxIIAAAl4vQCHE66eYBBFAAAEEEECgvQWyS+dqVtEHZpi9uh2uA3oc195DekT/21eE9I8ZrJROA1TbVK2f1nxuYj+1/0j17JTqEXm0Jcgmh1Oj7v1NlVX1f+omuVu4bro4VUkJYW3pnnsRQAABBFohQCGkFWjcggACCCCAAAIIbBeobazR5OzHVNdUq8jgzroo81YF+AUCJOnHNdP1W8nsXVqMHDxW4UGRXu/0wddr9c7nq8yJOfsPiVOfpAjFRgerT3IkRRCvn30SRAABuwpQCLHrzBAXAggggAACCHiEwNcr39WSsl9NrCf3u1S9ogd4RNzuCtI6NWZZ+eI/DXdcn/NlrRLx9la8sVY3P7ZYDY0O9U6K0KM3DZbf70cIe3vu5IcAAgjYWYBCiJ1nh9gQQAABBBBAwNYCxdVFei/veRNjn84DdWLfi2wdb0cFV91Qqaq6CoUEhioyKNonTouxrO8Yn6VlRdXy9/fTE/83WNbrMDQEEEAAgY4XoBDS8XNABAgggAACCCDggQIOZ5PezH1K5Vs3KtA/yGyQGhXc2QMzIeT2EPjmlw2a8G6B6frUI3vovBN7tscw9IkAAggg0AoBCiGtQOMWBBBAAAEEEEBg/vpZ+nntDANxYI/jtWe3w0BBwAhUVjXo+ocWaMvWJnWNDdH424cqKNAfHQQQQAABmwhQCLHJRBAGAggggAACCHiOQFV9hdkgtcnZaI7JPS/jJvn7BXhOAkTargJPT8rXzwvLzBj3XTtQGX07tet4dI4AAggg0DIBCiEt8+JqBBBAAAEEEEBAHy9/VUWVeUbijLRrlBiZggoCRmBRXoXGTVhifj9073hde24/ZBBAAAEEbCZAIcRmE0I4CCCAAAIIIGBvgYKKbE0vmGyCTI/bU0f3OsveAROd2wS21jXpxkcWqqyiXlERgXrm9mHmJw0BBBBAwF4CFELsNR9EgwACCCCAAAI2Fmh0NGhi9iPa0lClkIAwXZh5q8ICI2wcMaG5U+C1aSv0xQ/rzZDXnddPh+wV787hGQsBBBBAoJkCFEKaCcVlCCCAAAIIIIDAD2s+04KS7w3EET1PU2b8fqAgYAQK19RozFOL5XTK7Ali7Q1CQwABBBCwpwCFEHvOC1EhgAACCCCAgM0EymrX660l4+V0OtQ1PElnp18nyc9mURJORwg0OZz6v8cXa/X6LeZ0mPFjhqprXEhHhMKYCCCAAALNEKAQ0gwkLkEAAQQQQAABBN5Z8m9t2LJGfn7+Ojf9RsWFdQMFASMwbeZavT19lfn9vBN76tQjeyCDAAIIIGBjAQohNp4cQkMAAQQQQAABewhkl87VrKIPTDBDuh6oQ5NPsUdgRNHhAhvK6swGqQ2NDiV3C9cT/zdY/v6sFOrwiSEABBBA4G8EKITweCCAAAIIIIAAAn8jUNtYo8nZj6muqVbhQVG6cOCtCg7gtQcemm0C9zyXo9yCzfLzkx65abD6JLF5Ls8GAgggYHcBCiF2nyHiQwABBBBAAIEOFfh65btaUvariWF4n/OUGjOkQ+NhcPsIzJq7QS++U2ACOv6QRF0yopd9giMSBBBAAIHdClAI4eFAAAEEEEAAAQR2I1BcXaT38p433yZF9dVpqaOwQsAIVNU06tpxv2nL1ibFdQ42G6SGhgSggwACCCDgAQIUQjxgkggRAQQQQAABBNwv4HA26c3cp1S+daMC/AJ1/sBbFB0S6/5AGNGWAk9PztfPC8pMbHddma4haZ1tGSdBIYAAAgjsLEAhhKcCAQQQQAABBBDYhcD89d/q57VfmG/2STxK+3U/BicEjMCivAqNm7DE/L7fkDjdfHEqMggggAACHiRAIcSDJotQEUAAAQQQQMA9AlX1FZqS87gaHQ1mFYi1GsRaFUJDoL7BoesfWqCyinrzKsxzdw5TdFQQMAgggAACHiRAIcSDJotQEUAAAQQQQMA9Ah8vf1VFlXlmMGtfEGt/EBoClsDrH67U598XG4wrzuijow9IAAYBBBBAwMMEKIR42IQRLgIIIIAAAgi0r0BBRY6mF0wyg/SLGaTj+1zQvgPSu8cIFK6p0ZinFsvplPqnROqhGwd5TOwEigACCCDwPwEKITwNCCCAAAIIIIDA7wLWqzCTcx5XdX2FAv2DdHHmGIUHReGDgBwOp255fLFWr9+iAH8/PT1miBLjw5BBAAEEEPBAAQohHjhphIwAAggggAAC7SPw45rp+q1ktun84KQTNSzhkPYZiF49TuDDmWv11vRVJu7Tj03SWcOTPS4HAkYAAQQQ2CZAIYQnAQEEEEAAAQQQkMwxuW/kPimn06G4sG46N/1G+fn5Y4OANpTV6cZHFqqh0aHE+FA9eesQBQXybPBoIIAAAp4qQCHEU2eOuBFAAAEEEEDApQLv5T2v4uoi0+fZ6dera3iSS/unM88VuOe5HOUWbDYJPHhjplJTeF3Kc2eTyBFAAAFWhPAMIIAAAggggAACyimdp2+K3jcSA7vsoyNTTkcFASPw7bwNeuHtAvP7kft11ZVncYIQjwYCCCDg6QKsCPH0GSR+BBBAAAEEEGiTQG1jjSZnP6a6plqFBITp4kFjzE8aAlU1jbp23G/asrVJURGBeu6uPRQeGgAMAggggICHC1AI8fAJJHwEEEAAAQQQaJvA1yunaknZfNPJUSlnKKPL3m3rkLu9RmD85GX6aUGpyWf0hak6YFic1+RGIggggIAvC1AI8eXZJ3cEEEAAAQR8XMDaE8TaG8RqiZEpOiPtGh8XIf3tAovyKjRuwhLz55C0zrrrynRwEEAAAQS8RIBCiJdMJGkggAACCCCAQMsEHM4mvZn7lDktxjod5vyMmxUTGt+yTrjaKwXqGxy6/qEFKquoV3CQv/59xzDFdQ72ylxJCgEEEPBFAQohvjjr5IwAAggggAAC+nX9d/pp7edGYo+EQ3RQ0omoIGAEJn60UtNnF5vfLzq1l048NBEZBBBAAAEvEqAQ4kWTSSoIIIAAAggg0DyBqvoKTcl5XI2OBoUHRenizDEK9A9q3s1c5dUChWtqNOapxXI6pd5JEXpk9CD5+/t5dc4khwACCPiaAIUQX5tx8kUAAQQQQAABfbz8VRVV5hmJE/peqL6dM1FBQA6HU7c8vlir128xxY8n/m+wkruFI4MAAggg4GUCFEK8bEJJBwEEEEAAAQT+XqCwIkefFUwyF6VEp+mUfpdBhoAR+PCbtXrrs1Xm95MP764LTk5BBgEEEEDACwUohHjhpJISAggggAACCOxawHoVZnLO46qur1CAX6AuzLxVUcGd4UJAG8rqdOMjC9XQ6DAbo1obpFobpdIQQAABBLxPgEKI980pGSGAAAIIIIDAbgR+XDNdv5XMNt/u1/1Y7ZN4JFYIGIF7nstRbsFm87t1VK51ZC4NAQQQQMA7BSiEeOe8khUCCCCAAAII/EXAOib3jdwn5XQ6FB0SqwsG/p/8/QJwQkDfzduo599ebiQO2qOLbrigPyoIIIAAAl4sQCHEiyeX1BBAAAEEEEDgfwLv5T2v4uoi88FpqaOUFNUXHgRUVdOoa8f9pi1bmxQeGqDn7tpDURGByCCAAAIIeLEAhRAvnlxSQwABBBBAAIFtArml/9XMovfM76mxQzW897nQIGAEnpmyTD/+Vmp+v/qcvjp8n67IIIAAAgh4uQCFEC+fYNJDAAEEEEDAVwXmFn+tkprVWlm5VAH+AWpyNCk4IEQXDrxV4UFRvspC3jsILMqr0LgJS8wnGX076b5rB+KDAAIIIOADAhRCfGCSSREBBBBAAAFfE7CKIHPXfb1T2hyX62tPwu7zrW9w6PqHFqisol5Bgf4aP2aousaFAIQAAggg4AMCtiqEzPhylr6YMdOwh4aG6uorL1FKSvI/TkNl5WY9/cwExXSO1qgrLlZoKP8j9o9oXIAAAggggIAXC7yy+AFtaahS/5jBig1L0KbaEi0rX2xWgowcfLcXZ05qzRWY9NFKfTa72Fx+9vE99a+jezT3Vq5DAAEEEPBwAdsUQqwiyC9z52v0DVcqOrqTrL+//e7HZhVDthdQ+vROoRDi4Q8k4SOAAAIIINBWgQ1b1uqdJc+Ybo5KOVMZXfZSbul8zSyauu0fvek3qGs4/+htq7Mn31+4pka3P50lh8OpxPhQPT1mqAL8/Tw5JWJHAAEEEGiBgC0KIdtXdIw45XgNGZJpwt+6tU4vvTxRaWn9NfzYI3abUlHRar028S11T0ww97AipAWzz6UIIIAAAgh4ocDWxi16edG9JrPDeo7Q4Pj9tXjjHH236kPz2RVD7lVoYLgXZk5KzRGwih+3PL5Yq9dvkZ+fNO6GTKWmsGdMc+y4BgEEEPAWAVsUQhYtytZb70zbafXHxMnvqLKicrfFje0FlP323cvMR17eMgoh3vJkkgcCCCCAAAJtEJi69Dmtr1m1Uw/dIlJ05oBr2tAzt3qqQGOTU3krNiu/qEZvfbbtGOVjD+ymkaf39tSUiBsBBBBAoJUCtiiE/PW1mO257O7z7d9bhRKrXXzh2eZVGgohrXwKuA0BBBBAAAEvE/hx7Wf6bf33f8oqLixBx/U5X7GhCV6WLen8k8BTk/L1a065rA1St7foqCA9d+cwhYYE/NPtfI8AAggg4GUCHlsI2dWeIhRCvOzpJB0EEEAAAQRaIVDbWKNJ2Y+ovqnObI6a2WVfJUamKDEiRcEBoa3okVs8WcAqgsxZWLZTCmm9ozTu+m2vZNMQQAABBHxLwPaFkF0VN3b1Kk1rVoQ0NTlVXVvvWzNOtggggAACCHi5wI/F01SweYHJ8piki5UY0dfLMya93Qk0NDp0/YOLZf08c3iyMvpGKbegSlNnrDZH5v77zsHmJw0BBBBAoG0C/v5+igoPblsnbrzbFoWQluwRsn0T1cIV297t3FU7bvhRf7vB6vZ7rEJIaUWtG7kZCgEEEEAAAQTaU6Csbq1mFv/HDNEjIk0HxZ/TnsPRt80FlhVV65kpBSbKe6/J0MB+0cpZXql7n881n91wQV/1T4m0eRaEhwACCNhfIDwskEJIS6fJOvnlhQmv69yzT2vxqTHbx2rNipCWxsn1CCCAAAIIIGBvgbdyn1ZpbbH8/QJ0UeZtigrubO+Aia5dBbbWNemCMfPMGH9dEWJ9NuWRfdgjpF1ngM4RQAABewrYYkWIRWNtfLpy5SqNvuFKRUd3Mpuf/jJ3/p/+/va7H3c6WYZCiD0fLKJCAAEEEEDA3QK5Zf/VzJXvmWH36na4DuhxnLtDYDybCZRvrtc14xaoYYdNUreHyB4hNpsswkEAAQTcKGCbQsj2YsiCBYtN+jExnf8oglh/W4URCiFufDIYCgEEEEAAAQ8SsDZGtTZItTZKDQuM0CWD7lCgf5AHZUCorhao3tKoO8Znqbh0q+T8c+/J3cJ108WpSkoIc/Ww9IcAAggg4AECtiqEeIAXISKAAAIIIICADQV+XPOZfivZdlzuMb3O1oC4PWwYJSG5S8B6Jeauf2eraN0WM+RBe3TR2ccnq7S8Tl1iQhQbHcwmqe6aDMZBAAEEbChAIcSGk0JICCCAAAIIINB8gcq6Mk3JeUIOZ5MSIpJ11oDrmn8zV3qdgPUazD3P58jaKNVq+wyK1S2XpMrPz8/rciUhBBBAAIHWCVAIaZ0bdyGAAAIIIICATQQ+XPYfrd68zERzbsZodQlLtElkhOFugcYmpx5+eYkW51eaoQenRuuOUekK8KcI4u65YDwEEEDAzgIUQuw8O8SGAAIIIIAAAn8rsKIyV58un2iuyYjbS0f1OhMxHxVwOJx69JU8/bakfNvz0LeT7hqVrqAgfx8VIW0EEEAAgd0JUAjh2UAAAQQQQAABjxSwXoWZlP2oquorFBwQoosyx5iNUmm+J+B0SuOn5OvnBWUm+T7JEbr/2kyFBFME8b2ngYwRQACBfxagEPLPRlyBAAIIIIAAAjYUmL9+ln5eO8NEdlDSCdoj4VAbRklI7hB4aWqhZs4pMUP1SAjTQzcOUnhogDuGZgwEEEAAAQ8UoBDigZNGyAgggAACCPi6QE3DZrMapNHRoOiQOF0w8Bb5+/EPX198Lt7+fJWmfb3WpN41NkQPjx6kTpEcneyLzwI5I4AAAs0VoBDSXCmuQwABBBBAAAHbCHy54m3lbVpg4hnR/3Ild+pvm9gIxH0CM35Yr1enrTADxnQK1sOjMxXXOcR9ATASAggggIBHClAI8chpI2gEEEAAAQR8V6CkZrXeXfqsAegVPUAn97vUdzF8OPPv52/Us28uNwKR4YHmdZjE+FAfFiF1BBBAAIHmClAIaa4U1yGAAAIIIICADQSceit3vEpri82rMNYrMdarMTTfErA2RbU2R7U2SbX2Arn/ukyldA/3LQSyRQABBBBotQCFkFbTcSMCCCCAAAIIuFsgu3SuZhV9YIa1Nke1Nkml+ZbAb7nlevTVPFnH5Vqnwlinw1inxNAQQAABBBBorgCFkOZKcR0CCCCAAAIIdKhAfVOdXs96SHVNteaYXOu4XOvYXJrvCOQWbNYDL+aqscmpwAA/3X1VhjL6dvIdADJFAAEEEHCJAIUQlzDSCQIIIIAAAgi0t8Ds1R9r0YafzDBH9TpDGXF7t/eQ9G8jgcLVNRr7XLbq6h3y9/fTbZelaY+MGBtFSCgIIIAAAp4iQCHEU2aKOBFAAAEEEPBhgU1bN+jN3KfkdDrUJSxR52aM9mEN30t9TUmt7hyfpS1bm+TnJ914QaoOGMbeML73JJAxAggg4BoBCiGucaQXBBBAAAEEEGhHgffzXtC66pVmhLMGXKeEiOR2HI2u7SSwoaxOt4/P0ubqBhPWqDP76Kj9E+wUIrEggAACCHiYAIUQD5swwkUAAQQQQMDXBAoqsjW9YLJJOz1uTx3d6yxfI/DZfMsq6nTnM9kqq6g3BhecnKKTD+/usx4kjgACCCDgGgEKIa5xpBcEEEAAAQQQaAeBJmejJmc/pqr6CgX6B+mSQXeYjVJp3i9grQC5/eksbdhUZ5IdcVQPnXtCT+9PnAwRQAABBNpdgEJIuxMzAAIIIIAAAgi0VmBe8Uz9su4rc/uBPY7Xnt0Oa21X3OdBAtZeIHeMz9LakloTtfUqjPVKDA0BBBBAAAFXCFAIcYUifSCAAAIIIICAywVqGjZrYtYjslaFRAV31kWZt8nfL8Dl49ChvQSsU2Gs02GsU2KsZm2Kam2Oam2SSkMAAQQQQMAVAhRCXKFIHwgggAACCCDgcoEvCt/UsvJFpt+T+l2s3tEZLh+DDu0l0Njk1AMv5iq3YLMJbI/0GN02Ms0cl0tDAAEEEEDAVQIUQlwlST8IIIAAAggg4DIB64QY66QYqyV36q8R/S93Wd90ZE8Bh8OpR1/J029Lyk2AGX076e6rMhQYQBHEnjNGVAgggIDnClAI8dy5I3IEEEAAAQS8VMCpN3Ke1KatG+Tn568LB/6fokPivDRX0rIEnE6nxk9Zpp8XlBmQ/imRuufqgQoJ9gcIAQQQQAABlwtQCHE5KR0igAACCCCAQFsEFm+co+9WfWi6GJZwsA5OOqkt3XGvBwg8++ZyfT9/o4k0pXu4xl2fqdAQ9oPxgKkjRAQQQMAjBSiEeOS0ETQCCCCAAALeKVDXVGs2SLV+WsfkXpQ5RsEBId6ZLFkZgVenrdCMH9ab3xPjQ/XQjYMUGR6IDgIIIIAAAu0mQCGk3WjpGAEEEEAAAQRaKmCtBLFWhFjtyJTTNbDLPi3tgus9SOCDr9fqnc9XmYjjOgfr4dGDFNMp2IMyIFQEEEAAAU8UoBDiibNGzAgggAACCHihgLUnyBs5T5jMuoQl6tyMGyWxUaYXTrVJaeacEr00tdD83ikySA/fOEhd41j9463zTV4IIICAnQQohNhpNogFAQQQQAABHxawTomxToux2lkDrlNCRLIPa3h36tamqOOn5MvplMJDA/TgjYOUlBDm3UmTHQIIIICAbQQohNhmKggEAQQQQAAB3xVYVr5IXxS+aQDSYofp2N7n+C6GF2ZeuLpGeSurzIqPmi2Nev7tAlnH5Vqnwtx/bab6JEd4YdakhAACCCBgVwEKIXadGeJCAAEEEEDARwSanI1mg9Sahs0K9A/SRZm3KSKok49k7/1pPjUpX3MWbjsWd8cWFOivu65MV0Zf5tr7nwIyRAABBOwlQCHEXvNBNAgggAACCPicwC/rvtK84pkm7/27H6u9E4/0OQNvTXjiRys1fXbxLtO74YL+OmiPLt6aOnkhgAACCNhYgEKIjSeH0BBAAAEEEPB2gar6Ck3OfkzWqpCo4M66MPNWBfhxdKq3zPv/PbFYK9fWaOiAzrr8jD7KWV6pF94uMOnddFGq9h8a5y2pkgcCCCCAgAcJUAjxoMkiVAQQQAABBLxNYHrBZBVUZJu0Tuh7ofp2zvS2FH06nwtum6et9U06+YjuuuCkFG2ubtBld883Jhef2ksnHJro0z4kjwACCCDQMQIUQjrGnVERQAABBBDweQHrhBjrpBirdY/spdPTrvZ5E28BWFW8RZM+WqnF+ZUmpYH9Oqlbl1BVb2nU3MWbzGfjrs9UWu8ob0mZPBBAAAEEPEiAQogHTRahIoAAAggg4C0CTqdDb+Y+pU1bN8jPz1/nZdyk2NCu3pKez+ZRXlmvN6ev0vfzN5qjcXfXkruF66EbMxUaEuCzViSOAAIIINBxAhRCOs6ekRFAAAEEEPBZgUUbftTs1Z+Y/Id0PVCHJp/isxbekHhtXZOmfb3WbIza0OgwKfn7++mIfbsqPDRAC5ZUqKRsqyLDA9U1LlSjzuyjpIQwb0idHBBAAAEEPFCAQogHThohI4AAAggg4MkCdU21ej3rIdU31SkkIEyXDLpDwQEhnpySz8be1OTUlz+t1/tfrVFVTeMfDvsMitX5J/VUYjzFDp99OEgcAQQQsLEAhRAbTw6hIYAAAggg4I0Cs4o+UHbpXJPaET1PU2b8ft6YptfnNGdhmXkNpqR06x+59k+J1CUjesv6SUMAAQQQQMCuAhRC7DozxIUAAggggIAXCpTWFuut3KdNZtaeIOcPvFmSnxdm6r0pLSuq1qsfrFDB6uo/kuyREKbzTuypvTNjvTdxMkMAAQQQ8BoBCiFeM5UkggACCCCAgP0F3l36rEpqVptArVNirNNiaJ4hYK38mPxJkeZlbTv1xWox0cE6a3iyDt8n3uwJQkMAAQQQQMATBCiEeMIsESMCCCCAAAJeIJC3aYG+XPG2ySQ1ZoiG9znPC7Ly/hQ2Vzdo6ow1mjmnRE2ObUfBhIUG6NQje+jEQxMVHOTv/QhkiAACCCDgVQIUQrxqOkkGAQQQQAABewo0Oho0KftR1TRsVoBfoC4eNEYRQZ3sGSxRGYH6Boc+/XadPp61TtapMFYLDPDTsQd107+OTlJURCBSCCCAAAIIeKQAhRCPnDaCRgABBBBAwLMEfl77heav/9YEvV/3Y7RP4lGelYAPRet0OvXtvI1654vVKq+sN5n7+UkHDuuic0/oqfhYTvjxoceBVBFAAAGvFKAQ4pXTSlIIIIAAAgjYR6CqvsKsBnE4mxQV3FkXZt5qVoXQ7CewYEmFpnxapNXFW/4ILqNvJ10yopd69YiwX8BEhAACCCCAQCsEKIS0Ao1bEEAAAQQQQODvBTZtLdGaqgKt3rxcZbXrVVFXam44vs8F6hczCD6bCawq3mJOgskt2PxHZL17ROj8k1I0OC3aZtESDgIIIIAAAm0ToBDSNj/uRgABBBBAAIG/CFhFkC8K31BZbcmfvrFWg1wy6A68bCRQVlGnt6av1g+/bpRz2z6o5tWXc47vqYP26GJeiaEhgAACCCDgbQIUQrxtRskHAQQQQACBDhaYuXKqcsvmK8g/WLGhCaptrNbm+nIT1fkDbzaf0dwnULxxq5avqjYD9usZqcT4UNVubdIHX6/R59+vV0Ojw3xnbX5qbYI6/KBuCgigAuK+GWIkBBBAAAF3C1AIcbc44yGAAAIIIODlAhOzHjaFj7TYYTq29zlaX7NKU5c+Z7I+MuV0Deyyj5cL2Ce9975co6kzVv8poGHpMVpWVKXqLY3mc+v42xMOTdSIo3ooLCTAPsETCQIIIIAAAu0kQCGknWDpFgEEEEAAAV8VsDZGrawr0+D4/XVYzxGyXpV5I+dJw2EVRqwCCa39BX76rVTjpyzb9UBOyT/AT4fvE29eg4mOCmr/gBgBAQQQQAABmwhQCLHJRBAGAggggAAC3iBQ31SnyTmPaUtDlQL9g9Q5tItqG2pU07BtE84LM/9PnUPivSFV2+fwyvuF+vKnEsVGB+vuqzJMvA+8mKtNlfXqGhuiO0alq0fXMNvnQYAIIIAAAgi4WoBCiKtF6Q8BBBBAAAEfFdjauEUf5E8wp8Tsqu3b/Wjtm3i0j+q4P+0nXs/T3MWb1LdnpB4Zve2knjFPZ6lgVbX2HRyrWy5Jc39QjIgAAggggIANBCiE2GASCAEBBBBAAAFPF6iqr9CH+S+poq7MpGKtBOkXM1ibatcrMiha3SN7KzV2qKen6VHxz/hxvTkSNyQ4QPsMijGxz8sqV119ky77V2+zKSoNAQQQQAABXxSgEOKLs07OCCCAAAIIuFCgfOsGTct/+Y/XXxIje+mUfpcpOCDEhaPQVUsFnpyYr18WbStM7diSu4XrpotTlZTAazEtNeV6BBBAAAHvEKAQ4h3zSBYIIIAAAgh0iEBJzWp9tOwV1TXVmvF7R6fr+L4XKMAvsEPiYdBtAh/OXKu3pq+S/KSYTiEK/P0wmIH9onXKEd0pgvCgIIAAAgj4tACFEJ+efpJHAAEEEECg9QKrNufrs4JJanQ0mE7S4/bUUb3OlJ/1r29ahwnMWVimpyblm/F7JobroRsHKSTYv8PiYWAEEEAAAQTsJkAhxG4zQjwIIIAAAgh4gED+poX6auU7ckY7uxkAACAASURBVDgdJtq9ux2h/XsM94DIvTvE7GWVGjdhiZocTnNazGM3D+ZoXO+ecrJDAAEEEGiFAIWQVqBxCwIIIIAAAr4ssGjDT5q9+uM/CA5NPkVDuh7oyyS2yH3Fmhrd/Wy26uodiggP1IM3ZHI8ri1mhiAQQAABBOwmQCHEbjNCPAgggAACCNhY4Oe1X2j++m9NhP5+/jqm19mcBmOD+Sotr9OtTy5WVU2jAgP8dN91A5WaEmWDyAgBAQQQQAAB+wlQCLHfnBARAggggAACthNwyqmZK6dqSdmvJrZA/yCd2Pci9eyUartYfS0gq/hx+/gslZRulZ+fdMsladpnUKyvMZAvAggggAACzRagENJsKi5EAAEEEEDANwWanI36vGCKVlQuMQAhAWE6tf9IJUQk+yaIjbJuaHDozmeytWJtjYnqkhG9dPwhiTaKkFAQQAABBBCwnwCFEPvNCREhgAACCCBgG4H6pjp9vPxVFVevNDFFBHXSaalXKCa0q21i9NVAHA6nHv7PUi1cWmEITjqsuy48JcVXOcgbAQQQQACBZgtQCGk2FRcigAACCCDgWwJbGqv1Yf7LKqtdbxLvHBKnEamjFBXc2bcgbJrts28u1/fzN5rorFdhrFdirFdjaAgggAACCCDw9wIUQnhCEEAAAQQQQGAngc315ZqWN0HWT6vFh/fQiP6XKzQwHC0bCLz35RpNnbHaRJLRt5PuvirDbJJKQwABBBBAAIF/FqAQ8s9GXIEAAggggIBPCVgrQKblv6zaxmqTd1JUX53U7xIF+Qf7lINdk7VWgVirQazWo2uYHh49SGGhAXYNl7gQQAABBBCwnQCFENtNCQEhgAACCCDQcQLrqlfqk+WvytobxGp9O2fquD7nyd+Pf2h33Kz8b2RrPxBrXxBrf5DoqCA9dvNgxUZToLLD3BADAggggIDnCFAI8Zy5IlIEEEAAAQTaVWDV5nx9unyirFNirJYet6eO7nWmJF65aFf4Zna+Yk2NOSGmodFhVoCMuz5TPRN5VamZfFyGAAIIIIDAHwIUQngYEEAAAQQQQED5mxbqq5XvyOF0GI29E4/U/t2PRcYmAiWlW3X7+CxV1TQqIMBPY6/KMHuD0BBAAAEEEECg5QIUQlpuxh0IIIAAAgh4lcCiDT9p9uqP/8jp0ORTNKTrgV6VoycnYxU/bn1ysUrLt72uNPrCVB0wLM6TUyJ2BBBAAAEEOlSAQkiH8jM4AggggAACHSvw09rP9ev670wQ/n7+OqbX2UqNHdqxQTH6HwJ19Q7d/e9srVhbYz4778SeOvXIHgghgAACCCCAQBsEKIS0AY9bEUAAAQQQ8FQBp5yauXKqlpT9alII9A/SiX0vUs9OqZ6aktfFbW2I+sCEJcpeVmlyO2r/BI06s4/X5UlCCCCAAAIIuFuAQoi7xRkPAQQQQACBDhawNkP9vGCKVlQuMZGEBITp1P4jlRCR3MGRMfyOAtYRudZRuVbbIz1GYy5Pk58fG9fylCCAAAIIINBWAQohbRXkfgQQQAABBDxIwDoW9+Plr6q4eqWJOiKok05LvUIxoV09KAvvD/WdL1brg6/WmET7p0Tq3msGKjjI3/sTJ0MEEEAAAQTcIEAhxA3IDIEAAggggIAdBLY0VuvD/JdVVrvehNM5JE4jUkcpKrizHcIjht8FZv2yQS++W2D+6tYlVI+MHqSI8EB8EEAAAQQQQMBFAhRCXARJNwgggAACCNhZYHN9uablTZD102rx4T00ov/lCg0Mt3PYPhfbwqUVeujlJXI6paiIQD1682DFx4T4nAMJI4AAAggg0J4CFELaU5e+EUAAAQQQ6CCB3NL5Kq7Z9vpLVFCMFm38SbWN1ebvpKi+OqnfJQryD+6g6Bh2VwLLV1Vr7LM5amh0KCTYX/dfl6k+SRFgIYAAAggggICLBSiEuBiU7hBAAAEEEOhogS8K39Cy8sW7DKNv50wd1+c8+fsFdHSYjL+DQEnpVt32VJZqahvl7++nO0ela3BqNEYIIIAAAggg0A4CFELaAZUuEUAAAQQQ6CiBrI2/6NtV08zwcWEJ5mdZbYn52T2yt05Pu1ISJ4901PzsatzKqgaNeTpLpeV15utrzu2nw/aOt1OIxIIAAggggIBXCVAI8arpJBkEEEAAAV8X+GrFO1q66TdFh8TposzbDMek7EdVWVemAbF76JjeZ/s6ka3yr6t36PbxWVpdvMXEdcaxSTpzOMcY22qSCAYBBBBAwOsEKIR43ZSSEAIIIICALwt8U/S+ckrnmdUg52XcbCjezH3SrAoZ2GUfHZlyui/z2Cr3JodT4yYsUfayShOXtQrEWg1CQwABBBBAAIH2FaAQ0r6+9I4AAggggIBbBaxNUmcWTTVjWqtCrGatBrHaUSlnKqPLXm6Nh8F2L/DUpHzNWbhtbqz9QKx9Qaz9QWgIIIAAAggg0L4CFELa15feEUAAAQQQcLvA27njtbF23Z/G7R8zWMf1Od/tsTDgrgXe+LRIH8/aNke9kyL0wHWZ5qQYGgIIIIAAAgi0vwCFkPY3ZgQEEEAAAQTcKOD8fU+QTeZ4XOuUmMTIXhoUv58bY2CovxOY9csGvfhugbkkPiZEj948WFERgaAhgAACCCCAgJsEKIS4CZphEEAAAQQQcIfAispcfbp8ohnq0ORTNKTrge4YljGaKTA/u1yPvbZUTqcUER6oR0YPUrcuoc28m8sQQAABBBBAwBUCFEJcoUgfCCCAAAII2ERgWv7LWlO1XMEBIRo5eKwC/YNsEplvhvHLojItX1Wt9aVbldAlVNNnF6upyangIH/dc02GUlOifBOGrBFAAAEEEOhAAQohHYjP0AgggAACCLhSYNPWDXoj5wnT5bCEQ3Rw0omu7J6+Wijw3pdrNHXG6p3u8vP305jL0rRHRkwLe+RyBBBAAAEEEHCFAIUQVyjSBwIIIIAAAjYQmFn0nnJL/ys/+emSQXcoMjjaBlH5ZghrSmo1+pGFfyQfHxuijZvqzN9pvTtp3PUDfROGrBFAAAEEELCBAIUQG0wCISCAAAIIINBWga2NW/Tq4nFqcjaaDVJP6HthW7vk/jYIzJq7QS++s21D1AdvyFRqryhtPy7XKoq8cPcebeidWxFAAAEEEECgLQIUQtqix70IIIAAAgjYRGBe8Tf6Zd2XJprT065S98jeNonMN8P4dt4GvfD2tkLI02OGKikhTK+8X6gvfyoRhRDffCbIGgEEEEDAPgIUQuwzF0SCAAIIIIBAqwQcTodeyxqnLQ3Vig/vrnPSb2xVP9zkOoHv5pXq+beXmQ5jo4MVFRGk4o3/3955gMdVnHv/v7uSdiWttOpdli3ZsuXeC+DQwRAgCaGFEDCQAOkh5UtyQ/Llpt58NzeQ3BQgEEpIKCGUQMCmGAM2xsbGHXdZsnrv0q7q98ysV15Ju9pztumc3f881rOy9pyZ9/3Nu+fM+e/MO33oHxjGx5Zn4qufnRm8xlgTCZAACZAACZCAKgIUQlTh4sEkQAIkQAIkoD0Ch1s/xGsnn5KGXTz9epSlL9OekVFk0dbdzfjfvx2Xu8N4Kt+8pRRrFqdHERG6SgIkQAIkQALaIkAhRFv9QWtIgARIgARIQDWBJw/dh6beWiTEWnHbgntgNBhV18ETgkPg6Ver8Oxr1bKyBIsJy+alYXBoGH32IWSkmrGw1EYRJDioWQsJkAAJkAAJ+E1AU0LIho2b8OqGN6QzFosFX7rrVhQVFXp0rqOjE/f+9n60tbWPvn/b+huxaNF8v2HwRBIgARIgARLQG4Ha7go8e+SP0uzVeZdgZe5FenMhIuwdHBrBfY8fxfZ9rdIfIXr86ItlyM2Mjwj/6AQJkAAJkAAJRBIBzQghQgR5f/tO3P31u2CzJUP8/63NW7yKIY8+/hSWLJo/Knzs3XsAf3n076AYEknhSV9IgARIgAR8EXil/K843rYfJkMMbl94DywxCb5O4ftBJtDTO4ifP3gIxyq7Zc3FhYm45865SEqMCXJLrI4ESIAESIAESCAYBDQhhLhmd3zqE5ePCht2uwMPPPgoZs+ehXWXXuDTV9fxthQb1t98g8/jeQAJkAAJkAAJ6J1Ad38HHtn/C4xgBGXpy3Hx9Ov07pLu7BcJUH/+wGE0tNil7cvmpeJbt5QiNpbLk3TXmTSYBEiABEggaghoQggRszn+/tRzE2Z/iFkfHe0duPOO9bBYzJN2CoWQqIlZOkoCJEACJHCawJbqf+PDhrfl/26a922kWbLIJowEDpd34Zd/PoRe+5Bs9crz8vC5q4pgMITRCDZFAiRAAiRAAiSgmoAmhJDxy2JcXnj7uycvKyur8Mf7H8GNN1zNPCGqw4AnkAAJkAAJ6I3A4PAAHtr3E/QPOVCQVIKrS+/Umwu6tvftD5rwp6dPyJ1hhPBxx7XFuGhNtq59ovEkQAIkQAIkEC0EIkIIcYkgebnZimaPREvn0k8SIAESIIHIJbCvaRs2n3peOnhFyS0oTpkXuc5qzLO///sUnn+jRlpljjPi27fOxuI5KRqzkuaQAAmQAAmQAAl4I6B5IeTIkWOTihti+czu3fuwZMlC1blBxLc4A4PO6awsJEACJEACJKAfAiN48uiv0dXfhsRYGz47+/8A4HqMUPffwMAw/vjUCew86NyxLjU5Ft+5bTYKc7gzTKjZs34SIAESIAHtE7CY9ZMkXBNCiD85Qlw5QcpPVvq9U4wQQqobu7QfUbSQBEiABEiABNwINNiP4/3Wp+RfFtguRnHiKvIJMYGeviH8+R8VqK53JkXNzTTjzuumw8qdYUJMntWTAAmQAAnogUCazYKkhDg9mCpt1IQQ4im/h69dY8RMkIqKU6Pb7eqGOA0lARIgARIggQAJvHDszzjVeQwxxlh8fuGPEGeaPKF4gM1F/eliZ5if/OkQmtsckoVYBiOWw4hlMSwkQAIkQAIkQAL6I6AJIURgGy9sjE+UKv7/1uYtcmeZlBQb7v3t/XDfbld/6GkxCZAACZAACagn0GpvxBMHf+18IM86Bx8rvEp9JTxDMYEDxzvw3w8fGd0ZRiREvePaGTBwaxjFDHkgCZAACZAACWiNgGaEEJcYIvJ9iJKamjJmtoe7ECLeFzvE2O3O6anuZfx5WgNOe0iABEiABEggEAKbKv+JA83bZRW3zP8ebOa0QKrjuZMQEDvDiJwgw8POnWFuvqoIV5yXR2YkQAIkQAIkQAI6J6ApIUTnLGk+CZAACZAACYSUgH2wFw/v+xmGRgZRnDIXV5SsD2l70Vr5yAjwt5cr8eKmWokgNsaIb60vxbJ5qdGKhH6TAAmQAAmQQEQRoBASUd1JZ0iABEiABCKZwM76TXivZoN08erSO1GQVBLJ7k6Jb2JnmP957Ch2HWyT7SclxuCeO+eiuDBxSuxhoyRAAiRAAiRAAsEnQCEk+ExZIwmQAAmQAAkEncDwyDD+sv9n6B3oRpolCzfN+3bQ24j2Cju6BvCLPx9CeVWPRJGbacGPvjgXGalMRhvtsUH/SYAESIAEIosAhZDI6k96QwIkQAIkEKEEjrbuwYaTf5feXTT9WsxNXxGhnk6NW9X1ffjp/R+htaNfGjCnOAnf/0IZEiymqTGIrZIACZAACZAACYSMAIWQkKFlxSRAAiRAAiQQPAJPHroPTb21sMQk4PaF98BkiAle5VFek9gZ5lcPHYHdMSRJnL0kA1/97EyYTIYoJ0P3SYAESIAESCAyCVAIicx+pVckQAIkQAIRRKC+5xSeOfx76dHK3IuwOu+SCPJual15Y1sD/vzsydGdYa5fV4hPX1IwtUaxdRIgARIgARIggZASoBASUrysnARIgARIgAQCJ7Ch/G842rYXRoMRty24Bwmx1sArjfIaxM4wj/+rAi9vrpMkYkwGfOPmUqxayO2Iozw06D4JkAAJkEAUEKAQEgWdTBdJgARIgAT0S6C7vwOP7P8FRjCCOelLccn0G/TrjEYsd/QP497Hz+wMk5gQgx/cUYZZRRSYNNJFNIMESIAESIAEQkqAQkhI8bJyEiABEiABEgiMwHs1r2Jn/Vuyks+UfQOZCXmBVRjlZ4udYURS1MraXkkiO92CH36xTL6ykAAJkAAJkAAJRAcBCiHR0c/0kgRIgARIQIcEhkYG8fC+n8E+2Is863RcM/tLOvRi6kzucwyhvKobH53owtySJMTEGPGbR4+O7gwjZoCImSBiRggLCZAACZAACZBA9BCgEBI9fU1PSYAESIAEdEbgQNP72HTqOWn15cWfw8zUBTrzYOrMrW7ok6JHVb1z5ocoRoMBwxiB+CdygYicICI3CAsJkAAJkAAJkEB0EaAQEl39TW9JgARIgAR0ROCJg79Gq70R1jgbbl3wHzCAD+1Ku+8H9x3A0couj4d/6qJ83PjxaUqr4nEkQAIkQAIkQAIRRoBCSIR1KN0hARIgARKIDAKVnUfx4rGHpDPnFFyBpdkfiwzHwuBFZ/cAbv/hTtnSTVcW4RMX5OHFTbV44qVK+beHf7ocydbYMFjCJkiABEiABEiABLRIgEKIFnuFNpEACZAACUQ9gRePP4zKjiOIMcbi8wt/hDiTOeqZKAVw+GQnfvi7g/Lw799RhqVlKfjwUDt++eAh+bdff2chivISlVbH40iABEiABEiABCKMAIWQCOtQukMCJEACJKB/Ah2OVjx24L+kIwszz8J50z6pf6fC4EF37yCef6MGG7fWQ2yRK8qSshTMKkrCscou7D7UjjRbHB748bIwWMMmSIAESIAESIAEtEqAQohWe4Z2kQAJkAAJRC2Bt049j/1N26T/t8z/HmzmtKhlocRxKYC8WYONW84IIDEmIwaHnGKIe7luXSGuvbRASbU8hgRIgARIgARIIEIJUAiJ0I6lWyRAAiRAAvok0D/kwEP7foLB4QFMt5Xhqpm36tORMFgtcoG88GYtXnvvjAASG2PEJWdnQyREfW1rAw4e78DB452YNzMZ82baKIKEoV/YBAmQAAmQAAlonQCFEK33EO0jARIgARKIKgK7Gt7G1up/S58/NesLKEyeFVX+K3FWCCBiCcxr7zWgf8A560MIIBeflY1PXpiH1OQ4JdXwGBIgARIgARIggSglQCEkSjuebpMACZAACWiPwAhG8Mj+X6C7vwNplizcNO/b2jNyCi3q6BrAc2/U4PX3GjAweEYAuXBNFq6+KJ8CyBT2DZsmARIgARIgAT0RoBCip96irSRAAiRAAhFN4FjbPrxa/oT08YKiT2N+xqqI9lepc0IA+efr1XhjW+OoABJjMuDC1dm4+uJ8mQCVhQRIgARIgARIgASUEqAQopQUjyMBEiABEiCBEBP4x5E/oK67EpaYBNy+8B6YDDEhblHb1bd19uO512vw5vtjBZALVmXh05cUUADRdvfROhIgARIgARLQLAEKIZrtGhpGAiRAAiQQTQSaemvx5KH7pMsrci7Amvx10eT+GF+FAPLsa9XY9H4jBodG5HsmkwHnr8zCpy/OR0aqOWrZ0HESIAESIAESIIHACVAICZwhayABEiABEiCBgAlsPPkkjrTuhtFgxG0L7kFCrDXgOvVWQUt7v1wC89b2sQLIeSsycc0lBRRA9NahtJcESIAESIAENEqAQohGO4ZmkQAJkAAJRA+B3oFu/GX/zzA8MozStMVYN+PG6HEegBBAxAyQt3Y0Ysg1A8RowLkrMuV2t5wBElXhQGdJgARIgARIIOQEKISEHDEbIAESIAESIIHJCWyr3YgP6t6UB32m7BvITMiLCmTNbQ78Y2M13t7ZNEYAWbs8A9deUoisdC6BiYpAoJMkQAIkQAIkEGYCFELCDJzNkQAJkAAJkIA7gaGRQTy872ewD/YiN7EI1875csQDEgLIMxuq8Y4QQIadOUCMRgPWLsvAdZdSAIn4AKCDJEACJEACJDDFBCiETHEHsHkSIAESIIHoJnCweQferHxWQris+LOYlbooIoCImR7b97WirqkP1oQYZKWZcc2lhdiyqwnv7moeI4CcszRDLoHJybBEhO90ggRIgARIgARIQNsEKIRou39oHQmQAAmQQIQTeOLgr9Fqb4Q1zoZbF/wHDDDo3mMhgjyzoWqCHwaDASMjzhkgBgMgBJDr1hVSANF9j9MBEiABEiABEtAXAQohfvbXluqXUdtdgXZ7M6bZSlGSMh+zUhf6WRtPIwESIAESiEYCVV3H8fzRB6XrZ+dfjmU550UEhp8/cAh7Drdj3sxklEyzorN7EJt3NJ72bQTnLHUmQc3Lio8If+kECZAACZAACZCAvghQCPGjv14tfwLH2vZNOPOy4psohvjBk6eQAAmQQLQSeOn4IzjZcQgxxlh8fuGPEGfSf3JQkf/jq7/YjcHBEVy4Ogt3XV+CxlYHvvzTD2U3X3V+Hj53VVG0djn9JgESIAESIAES0AABCiEqO6GuuxL/OPIHedbc9OWIj0lEQ281qrtOoCRlHj5ecovKGnk4CZAACZBANBLocLTgsQO/kq4vyFyD86d9SrcYeu1D2LanBW9/0IRD5Z1i4QuAEZy3MkvO/GhqtePHf/hI+ve9L8zBsrmpuvWVhpMACZAACZAACeifAIUQlX24u/FdvFv1kjxr/fzvI9mcKpPciWR3JkMMLp5+Habb5iDOxIRvKtHycBIgARKIKgJvV72IvY1bpc+3zP8ebOY0Xfk/ODSCXQfb5M4vH37UBvH/0eLUQTyWB/9zOVKTY3XlK40lARIgARIgARKILAIUQlT2p5jCLKYyi3J16Z1IjkvDjrrX8VHLztGajAYjcq3TMcNWJn9SLVkqW+HhJEACJEACkUygf8iBh/b9BIPDAyhKLsUnZn1eF+6KPKdixofY9UXMAOnpGxxjtznOiBXz02QS1M0fNOL9va1j3v/mLaVYszhdF77SSBIgARIgARIggcglQCFEZd/2DHTh4X0/9XiWty/AbOZ0zLDNxYyUMuRbZ8BoMKlslYeTAAmQAAlEEoHdDe/g3eqXpUufmHU7ipJna9q96oY+uexly4fNEDlA3IvJZMDiOSlS/BAiiBBDXOVoRReOVnYj3RaH0ulJSE+J07SfNI4ESIAESIAESCA6CFAI8aOfRaJUkTDVvYgdY86fdjUqOg7LxHeVnUfQP2SfULtYMjMteZZTGLGVwRKT4IcFPIUESIAESECvBEYwgkf2/wLd/R1yOcwt8797OqeGtjxq7xrAuzub8M6uZlTU9IwxTmx9W1acLMWPsxanIzEhRlvG0xoSIAESIAESIAESmIQAhRA/w6N7oAMicap4zUmYhlzr2Az4wyPDqO0+iZMdH+Fk+yG0O5ontGSAATmJ0zA9xbmEJiM+109reBoJkAAJkIBeCJxoP4B/n3hcmisE9AWZqzVjut0xJJezvLOrCQeOdUAshXEv0/MTsXZpBtYuy0CqjbM7NNNxNIQESIAESIAESEAVAQohqnD5f3C7vUnOFBE/QiARQsn4khSXIgWR6bYyFCbPgolLaPwHzjNJIIoJdDrapPcimTOL9gj888j9qOkul1vlii1zxda5U1mGhkew51C7FD92HmhD/8DY+1N2hkXO/Dh3eQZyM+On0lS2TQIkQAIkQAIkQAJBIUAhJCgY1VUilsxUdB5BRfshVHQehn2wd0IFYmB8ZgnNXCTEWj02wgcedex5NAlEMgGxbO+DujfQ3Fcv3cyIz8GK3Isglu6xaINAU28tnjx0nzRmWc55ODv/8pAZVtdkx/FT3bL+mdOsyM0cu5uZyN8hkp5u3d2Mrp6xSU9TkmJx1hLnzA9xLgsJkAAJkAAJkAAJRBIBCiFT3JtirbhYYiOW0FR0HEJLX4NHi7ISCpy70KSUQfzOB54p7jg2TwIaI1DZcQQvHn/Yo1WfmHk7imzaTsapMZwhM+f1iqdxqGUXxNLIWxf8B6xxtpC09Y+N1XhmQ9WYuq9bVyiFjbd3NkkBpKF5bB6rBIsJqxam45xlGVgwKxkGkQiEhQRIgARIgARIgAQikACFEI11amd/G062H5RJVys7j3q0zmyMh2O4jw88Gus7mkMCU0ngvZpXsbP+LVhMCTi/6GppyluVz8E+1Isl2WuxtuDKqTSPbQPoG+zBn/f+p2RRmrYY62bcGBIuWz9sxn1/Pea5bpHzw03fiI0xYtm8VLn0ZencFIj/s5AACZAACZAACZBApBOgEKLhHh4Y7sepzmNypkh5+0E5iHYvnh54luecj7PyL9OwVzSNBEggFASeO/oAqrtOoCCpBFeX3imbcP1N/C6SMedYi5CTWIjcxCKkWrJCYQbrnITA9rrXsb32dXnEdXO+IpNlh6I89Gw5Nm5tQLzFhO/e7pwJ9KuHj6DPPgTAqYQsnG3D2qWZWLUoDfFmbukein5gnSRAAiRAAiRAAtolQCFEu30zwbKGniqUd3yEvY1b0D/k8PjA4/4QpCPXaCoJkECABMRsEDErJD4mEStzL5K17ah7Y4KA6mrGbIpHjnWaFEXET3biNJm8kyV0BP689yfoG+xGdmIhrp/z1aA3JJa6bN/Xihc21aKrZwAl06z4r7sXyHa+d+9+nDjVjaLcBPzwi3NhS5raBK1Bd54VkgAJkAAJkAAJkIAKAhRCVMDSyqGTPfBYYhJwYdG1KEmZpxVzaQcJkEAYCOys34T3ajZ4bKk4ZS66+zvQ2FszqSXp8TmnRZFC5CQWIT0+OwyWR0cTIi+IyA8iyqUzPoPZaUuC4viJqm58cKANO/a1oqp+bOJtc5wJKxc4dw7asb8Njv4hfO6qIlx1fl5Q2mYlJEACJEACJEACJKBXAhRCdNhzpzqP4oVjD01qea51Os6f9ik5HZ6FBEggsgm02hvx9KHfQSynMxiMGDm9PbdY/rI675LRXWMGhwfQ0FuF+u5TqOupRH3PKfQOdHmFI2eNJBbKJTVi1ohYyhFnGrvzSGSTDZ53Txz8NUQ/R5ETnAAAIABJREFUiR3AbltwD4wG/3JxDA+P4ODxTuw40IoP9reipb1/jJFGowGFOfGorJ24G5k48J67yrBodkrwHGNNJEACJEACJEACJKBDAhRCdNhpwmSxa8z7ta+hzd4oPRAPPOIbxuNt+9DcVzfqVVn6MpkzJDE2Waee0mwSIIHJCIjcQWI7VjHjw2gw4dOz70JCjHO7U5s53Sc8kaC5vrtyVBgR27sOj4hcEp5LmiUbuTLXyLTTs0ZErpEz2TdFHowT7QfQbm+GEFJs5jRcUPRpiPOitYjcLSJfiyhr8tdhRc4FqlA4+oex53A7duxvxa6P2tDTO3ar2xiTAQtKbXLHl5UL0pCUGINte1rwwqYaNLQ4ZFvZ6WZ88oJ8rFnsOyZUGceDSYAESIAESIAESECHBCiE6LDT3E3ucLSMe+AZkVsziinyPQOd8r1YYxyW5ZyHpdnnIsbIdeE673KaTwKjBIZGBvGPw39EY2+1/FswllyIOht6qlHfUym39hazRlzXEk/oxQwROWsksQid/a043PLhhMPEEptrZ38lanOQvHziMZnw2mSIwe0L74FYwuirdPUM4oPTsz72HunAwODwmFPMcUYsKUvFqgVpctcXkRiVhQRIgARIgARIgARIQBkBCiHKOOnuKDEF/oP6Tdjd8A7E76IkxCbh7PzLIWaJsJAACeifwCvlf8Xxtv3SEZEgVSyDCUXp6m8bFUXEkhqRuHmyIpI2ZycUyEStH7XslIeKnWzE36OtCHaP7P+ldHt+xio5O8ZbaWp1YPt+55KXwye7IJbBuJfE+BgpeqxamIYlc1IQG+vf8ppo6wP6SwIkQAIkQAIkQALjCVAIifCYEN/kbq1+BYdbz3xLm5VQgI8VXoU86/QI957ukUDkEthWuxEf1L0pHSxNW4x1M24Mq7Nitogzz4hz5ohz1ohza9Z5GStxYdE16HS04dEDThFAJHA+t/CTsMbZwmrnVDUmZuVJAamnEp2OVmnGTfO+NWGJ0MnqntF8H57yeojdXVbMT5Pih1j+YjKeWYY0Vb6xXRIgARIgARIgARLQOwEKIXrvQYX2i6nz71S9hNruk6NnzExdgHMKrkBynHNXARYSIAF9EBDLT16reEoaK5KYitkWJmPMlBrf1d+O5489KHODzE1fjpW5F8ulMq7cGC7jxNaxM1MWoCR1PlLMGVNqc6gaf7X8CZnHaXy5rPgmlNgW4FB5l8z3IWZ+NLU5c3i4l8xUM1YudIofc2Ykw0DtI1RdxXpJgARIgARIgASilACFkCjreDGNfkv1yxAJEl1lSfZarMq9mLtBRFks0F19EqjpLsc/j9wvjRci5vVlX0N8TKImnBHXlg8b3vFii3iaH7vUQ2zXW5IyX84WyUzI14QPgRohROenDv1utH/iY6xotTfIHX36W6bjo3dWQOT/GF/ys+Kl8CESnhYXaqM/A2XB80mABEiABEiABEhAqwQohGi1Z0Js166Gt7Gj9nU5OBdFJO9bk7cOCzJXh7hlVk8CJOAvgXZHM54+9L9wDPXJxKPXzfmK5nZj8TQb4tIZNyLGGCMThp5oP4j+IfsEBElxqXKbXyGMiF1p9FZELiaRWPbto1vRggPSfNE/YnedjSefxJHW3XD0xGPH8+tGXZuRn4hVi9JlwtOCnHi9uUx7SYAESIAESIAESEC3BCiE6LbrAjdcJDIUeQYONL0/WlmqJRMfK/wEipJLA2+ANZAACQSNgBA/hAgixBBRPjnrC5iWPCto9QezIrnbTO8pWGNtUtQQr+6lsvOIFEXE8hH7YO+EphNirZiZslAunylMmhlM04JWV7u9CXU9p9DQcwqV7eXoGGiQdbfVZiM1z/n7DWVfg8jJ9EbFMzJpbF9XIrr3fXp05kdmmjlo9rAiEiABEiABEiABEiAB5QQohChnFbFHttkbsfnUC6jqOj7qY1HybHys8EqkWrIi1m86RgJ6ITA8MiSXw4jEm6JcNP1azE1foRfzvdo5ghHUdVfgeNsBnGjfD5FnZHwRs9WKbXNRkroA05JLYTKEf5vYgWEH6nuqUN9dicr2CjT2ncLgSJ9Hv1prspGW7xRCRBHLl1xLEXtqZ+H7V35B9/1GB0iABEiABEiABEhA7wQohOi9B4Nov/iW9t2ql+V6dlEMBqPc7lFsyamVHARBdJdVkYBuCLiWVgiDRU6ftQVX6sZ2NYaK/Boij9GJ9gNoszdNOFUsB5qePEfOFJluK0OsMU5N9YqPFW2L3XBOdVSgur0CPcNNgGFsfhNXZb2dSehsSkNXYzq6WtJgi8tGTM4uFC08PKa93o4kZDuuwK2XLVFsBw8kARIgARIgARIgARIIDQEKIaHhqttaR0aGcaB5O96vfQ1i6YwocSYLVuReiCVZ58A4Bd/G6hYmDSeBIBDYWb8JYitWUWbYynDFzPUwIPK3ERGCrHOmyAE09dZMICl2yZmWVIqZqfNRnDIPZtOZHBv9Qw7UdVdjf/UhLCgoQ661QOZU8VTEsWJ5S1VHBcpbT6B9oBbDhok5TMS5w8NGdDWnoqspXYof5qF8zMhJw8xpiSgutKKk0ApznBHb9rTgr5s3wZbdDHOCHR1NaZiWNAd3X78qCBHBKkiABEiABEiABEiABAIlQCEkUIIRer54ONhR9wb2Nm7B0MiQ9NJmTsPZ+R+H2HaXhQRIIPQETnYcwkvHH5ENZcTnyuSbMcbY0DessRbEkpnjbftwvP2AXJ4iltS4F6PBiPykEsxMmY/0+Gz8Y99TMJjPLLMZcaTgc0tvR5olC632JjnL43hzORr7KtFvbJ2wm42r7n67BZ2NaVL0QG8O8pMLUDLNhpmFVswssiLB4n2ZTkt7P45WdKGlox+lRVaUTk/SGFWaQwIkQAIkQAIkQALRS4BCSPT2vSLPOx2t2FLzbzld3VXyrDNk/hDxQFbddQJVnceRYs5AdmIhRRJFVHkQCfgmIJaJPHvkTxC7kSTGJuP6sq9OSDrqu5bIO6J3sBvlbQdkolX3vEYuT/s6rYhP7p7guL0zGRarHTA6d8ryVHrabFL06O/MQoa5EMXZuSiZZsWsIits1ugToCIveugRCZAACZAACZAACTgJUAhhJCgiUNtdgXeq/gXxcOaMHMBissA+OHYK+aq8i7Eq92JFdfIgEiABzwS6+zvw5KH75PI0ITiKmSBiRgjLWAJiJ53y9o9kotWKjqMYHByG0TQsDzq74HIsyz4Puxo2Y2v1K/Jvw0PG0feHBkzoak5Db1sGEg0FKEqZgdLCVBQXWJGVzt1cGGskQAIkQAIkQAIkEMkEKIREcu+GwLdDLbuwteYV9A10ycnpIllhmiUbfYPdozsj3DTvW/JvLCRAAuoJDAz345nDv0dLX708+cqZt8rcICxAU6sD9c12NLSInzO/1zb2QXDLLKpG6ZrdEtVVM2/DdNscVHQcxr+O/0X+re7IDFhjMpBrnY6SzOkoLkxEYU4C0ZIACZAACZAACZAACUQZAQohUdbhwXBXTNV/eO9P4Ri2Y3baElw64zOo7zklH95EubDoGszLWBmMplgHCUQdgRePPYTKzqPS77UFV2BJ9sd0xaC6oQ8HjnXIn5wMC2ZOs2L1onTFPojzG1vsqGuyo77FjsZmB+qa++T/lZSVV78qE5QKEUQs12voqZJiSH+fBd9Y85+IMUV+olklnHgMCZAACZAACZAACUQzAQoh0dz7Afj+2IFfocPRgoWZa3DetE/JLXefOPg/skYhjAiBhIUESEAdgc2nXsC+pvfkSUJMFKKinooQMX7z6FFU1feOMfu6dYW49tIC+bc++xDqxKyOZqfQUd/knOEhZnq0dvRjxPMutRMwGAxARooZ2RkWKbiIn+x0M949tRHmvD0Tjh9uWopvrLtBTzhpKwmQAAmQAAmQAAmQQIgIUAgJEdhIr3ZT5T/lNrsif0GKJQN9Az3oGeiUbucmFeHK4lthieGU80iPA/oXPAJ7G7fi7aoXZYX5ScW4etYdMBiMwWsgDDX94ckT2LyjUbaUmWaWS1lcpSg/AS1t/ejuHVRlSX5W/KjYIYSO3Mx4KXjkZZ3ZLnd8hfdteArdI1VIzmpCZ2MmrIZCiiCqqPNgEiABEiABEiABEohsAhRCIrt/Q+admAHyavkTaOlr8NiGNdaGj5fcLKems5AACUxO4FTnMYglMWJbWLED0w1lX0OcyaJpbF09g3LJipjRIZatiJ/397VgaGgEaxan45u3lMrtY3/w2wNOP8SKFA+zPcQWtDmZFuSkW5yCh+s1w4w0mxli5oc/ZWBwWLYvtq2NjdGXoOSPvzyHBEiABEiABEiABEhAOQEKIcpZ8chxBIQYInZsqO+plNt6CtHjZMeh0a12jQYjzs6/XHc5DtjRJBBOAq32Rjx96Hcy2Wd8TCKuL/sakuNSw2mC17b6HEMQiUhdQodYvlLX5Pz/ZDM7Lj07G5+/phhiqczd/+VcppKTacacGcluQodYymJBUmKMJnylESRAAiRAAiRAAiRAAtFDgEJI9PR12DwVU/y3VL+MoZEh2WZxylxcMv0ziDNxS8qwdQIb0gUBsT2u2CZXbJdrMsTg2jlfQlaCM5eGP2Xbnhb8661amW9Dig8ZFlx1fp6coeGt9A8Mo6ahT+btkEJHY598rWnsg5j1obQIUcMxMIz2zn7ExRrlEpaungGZ90OUX39nEYryuFxOKU8eRwIkQAIkQAIkQAIkEDoCFEJCxzaqa27qrcHLJx5DV3+75JBsTsOVJeuRHp8T1VzoPAm4CIjdl5498ic09lbLP11e/DnMTF3gN6A9h9vx8wcOeTz/u5+fg6w0s1PokMtYzszyaOt0ChW+ijnOKGdwOJOSilczcjJE/g4zMlPNMBoNEELMbx5z7njjXlxLZXy1wfdJgARIgARIgARIgARIIBwEKISEg3KUttE/ZMerJ/+Gyo4jkoDJGIPzCj/JrXWjNB7otjuBEbx0/FG5lEyUVXkXY1XuxQEh+uu/KuVsEDEb4/yVmbKut3Y0Qcz4UFqsCTHIzXQJHc5XIXQI8SM1OU5RNUIM2Xe0A81tDsRbTLKOz14xTdG5PIgESIAESIAESIAESIAEwkGAQkg4KEd5Gx/Ub8L7ta9hZMT5QCa21hXbgoodZ1hIIBoJvFfzKnbWvyVdF7NAxGwQX6Wl3YGmtn40ttjR3N4vd2QRYoPYera5rR8DgyIT6QiK8hLx6+8slNV9+7/3obK2Z0ym0vSUOLdZHc4Epa5dWOLNJl9m8H0SIAESIAESIAESIAES0D0BCiG670J9OFDTVY5Xyv8KkRNBlDRLFq6YuV7ukMFCApFC4PF/VeJweZdcerJ4TgpWLkibkJ/jSOtubDz5pHQ5N7EIV8++U+YHaWh2ChyNrXY0CpHDJXS0OsZsQ+uLVWJ8DL5zW6k87L//chQ9fYNYvSgN1182DQXZ3rec9VUv3ycBEiABEiABEiABEiCBSCFAISRSelIHfvQOdOHf5Y+jrrtSWhtrjMPF068PKC+CDtymiVFCQOTGEMtCxhexjezy+alS3DjedAz77E9iBENAvxUtu69AQ9OITCg64mFrWU/oRC6OdFscstLNyEpzzubISregqdWOJ1+p8kj7W+tLsXqR94SpUdJFdJMESIAESIAESIAESIAEJAEKIQyEsBIQy2O21W4cXRYgGl+UdRbOKbgSJgOn5QfSGZ2ONnl6slkbW68G4os/5+490o7yqh6I10WzU1BcmChfQ1Uc/cNyC1nxc+RkJ/787EnZ1Hkrs5BsjcGJU904eLwTsTFGDAwOIz65G0su2wxT7ACGBmKx+9Xz0Ndp9Wie2FJW5NYQYod8TTsjeoilLN7KPzZW45kNY8WQ69YV4tpL/d+JJlT8WC8JkAAJkAAJkAAJkAAJTBUBCiFTRT7K263oOIwNJ/8OkVBVlMyEfFxRcguS4kL34BqpyI+17cMHdW+gua9eupgRn4MVuRdhVqozT0Q0FG+7lYjZGJNtHSvYdHYPyOUjXb2D6OkdGhU35N96BuV7Quzo6XUeI37v6BrwivUPP1wqhYv7nz6BN99vlMfFmAew9LJNMFt7MTJiwOHNaxE/XCiPE4lIxa4rQuAQ/xfCh9ihxd9S3dCHoxVd8vTS6UlcDuMvSJ5HAiRAAiRAAiRAAiQQsQQohERs12rfMbG1rthiV2y1K0qcyYJ1M27EdNsc7RuvEQvFjjwvHn/YozWfmHk7imyzw2apWN4hEnomxMcgzRaHcCbe/MYv96CmsU/OxCjMSUBVfS86uweRnBiDC1ZnjxE3unucYkZ33yD67EPB4WOQeUpl+fGX5yIzzQIxO2PzjkYkW2Ox8op34Yipk++flXM1luevDk67rIUESIAESIAESIAESIAESEA1AQohqpHxhGATeLvqRext3Dpa7YqcC7Amf12wm4mo+kS+lc7+NrnEqLz9ICymBJxfdLX08a3K52Af6sWCzDU4f9qnwuK3p/wYSmZjeDJOLCMRIkZX7wC65KuYmTEgZ2c4f5y/d7peuwcglqmIctvVM3DZ2hy8+m49/vKcc6kK3EQKtTAsZhMS400Q28q6/yS6/h/v/Lto5DePObeJHl8WLO1Eytw35Z+XZp+Lcwo+rtYMHk8CJEACJEACJEACJEACJBBEAhRCggiTVflP4GjbXrxR8QwGh51LDgqSSnBZ8U2Ij0n0v9IwnTkw7EB3fwccQ3ZYY22wxtkCblnMlunqb4PI+yFfT/90OdrQ7mieUL/gdXXpnfLvzx19ANVdJ+TvYpZNZnweshLzkRGfh8yEPGTE5wZsn3sFj71QgZffds52GF9+f89SmIw4I2K4iRtCyBCzM6Sg4SZ4uEQNpUaKiRhC6xDFJb64L5UxGgBrYuwZIUOIF4kxngWO0+9ZT7+axMkKi6flObPnDCFr+b9kDTNsc3HlzPUKa+NhJEACJEACJEACJEACJEACoSJAISRUZFmvagJt9ib8+8RjaLU78yokxFqlGJJvLVZdV7hOEPk5Xi1/YkxzIjeHsHuyIsQMIZ50OFrgEj3Ea4ejVQofaosQjFbmXiRP21H3xug2xd7qyUookKKI8ydfiiUxxljFzbZ3DchlMGI5zKMvVKCxxYElZSlYtzZX7l7y0OnEoYHMxvBkjJihIRKJip/k0+KGWHqy+YNG9PYNSbGjKC8BlbW9cvlLRmoc/vSjZYr9CvTA3dW7cbzxJDoHmpFsSUHd4E5ZpRCfrpvzFVWMA7WF55MACZAACZAACZAACZAACXgmQCGEkaEpAmJGyJuVz+JI625pl8FgxJq8S7E853xN2SmM6RnowsP7furRrjnpyzA7bTHEDI7R2RynZ3iIZS0jroQSCr0ym+LlbjBJcalIjjv9ak6VNmw+9bzHWuZlrJQzbEQOFiEyTdamAQakWDKlMBKPbMT0Z2CwJx0dHUa0tPdLwcOVA0T831Nx353k2ru3+fQs3mJyihlS1BDiRuxpkcP5Kv7mfC8WSQkxSLXFea3T024p4uBw7piyve51bK99fYKNlthE3FT2TSTEJvlkwgNIgARIgARIgARIgARIgARCT4BCSOgZswU/CBxo3o5Nlf8cPXOGrQyXzviMXOqhleI+G+S8aZ+SAsW+pvcgdsRROxMiPsZ6WuhIgc2cLpfYiFexi4549TZbQ+wQ8sCrbyCxaA8Skp07hfR2JqGncjHuvOyi0R1DhCBS1VaFyrZTaOqtRXt/HfoMDT5R9vfGo7vNhu6WFOdrWwoc3QkTzssoqsHshS2ITa5BzHAKyo9aUb5rAS5cnYmZ05LcRA6n4JGSpHz2iU8jTx8gxJCGFjua2xzIELuwpFvCtm1sq70BTxz8H2mJiAPRn+JvA8P9KEmZh4+X3KLUDR5HAiRAAiRAAiRAAiRAAiQQYgIUQkIMmNX7T0DMZPh3+V/R6WiVlQhR4OMlN0Ms6wh3Edv8NvbWoKG3Go09VU4xwS1Xx9eW/T9pkrdZASJvSHJcmvQh2ex8tcWlyXwiqZYsv90RuTlEjg5RZsxw7oBy8qRJvhYXWpFgMY0uYfGUeyMxtQPix5rWAat8bYcp1vvWsKJew7AZ5uFMpMblIiMhD4dOtmMw8+0JPvQ0TMM3LvxiWHeP8RtkgCcebN4hZzKJIpbA5CROw8aTT8qZTUIYWb/g+wG2wNNJgARIgARIgARIgARIgASCRYBCSLBIsp6QEBACxGsVT8udUVxFzL5YmLkmJO2JSkWbDT1Vp4UPp+ghcnlMVuamL0eetRg76l6XS2HEEpO1BVfKpSw2c1pQbG3r6Ed9ix0NzY7Tr3bsPdIuE5HmZFjwvz9YItv56s93o77ZrqhNsftJui1ObncrftJT4mC19SE2qQ1Dsc3oHalHW38degY6fdYnErZmJxTI/CQftThzY1w7+8vItRb5PFfvB2yteQW76jdLN26a9y2kWbLlkqV9TdvkjJ5b5n9X7y7SfhIgARIgARIgARIgARKIGAIUQiKmKyPbkQ8b3saW6n+POlmauggXTr8GsUZzQI47hvrQ0FONxl6n8CF+XDNQPFUca4xDduI0ZIkEowl5MjGpyL8xvqzKuxirci9WZdvQ8AiaWx2oa7bLJR5CzHCJHo0t9tEtYj1Vmplmxh9/uFS+9aWffoimVgfMcUYU5iRIceOM0GEe/T0jJQ6xsUZFNgpxQ7ARs3SEMNTUV4v2cX6LnCQXFl0jd7p59MAvZb1rC6/Ekqy1itrQ40GCx7vVL6O6+wRcaV8SY5MRH5uIdnuzzNEyP2MVLij6tB7do80kQAIkQAIkQAIkQAIkEJEEKIREZLdGplN13ZV4pfyvo7MTUi2ZWJJ9LuyDPTjVeRTTkkulQCFePRX7YO/o0haxxEU80PvaoUXMZshOcAkf+UiPzx5T9aY9R/Bew3NIznDu9NJvtyCmay6+se4Gjzb0DwyjrumM0CHFDiF6NNnR2OpQ1XGpyXEwmw2ob/J83pc+U4LzV/q/7MaXMSL/hWAoloAIjmJWzMrci9HZ3yq38BUlxzoN5xV+ckqWM/myP5D3hVj2Xu0GHG3dM1qNED/6BnrGVCviRewgJGaIsJAACZAACZAACZAACZAACWiDAIUQbfQDrVBIQMxMEGJITVe51zPEg6dYpuFa3iK+tW/srZbb1HorRoMJGfE5yEoslMs7shMLkW7JlrvWeCttnQO44/86l4DEWvphTuhFd2uK/P85SzOwbG7q6BIWIXiIH7HtrNJiMhmQmWqWy15E4s+cDPF7PLLFa7pldDbHbx47im17xi7dWbM4Hd+8xbMgpLR9pcdtqX4ZHza84+VwA8RUCSFOrc67RObO0HMRYprIA3Og6X0MjThzsohtnlfnXgIxI0Yk0K3tPonugQ7kJBahOGUuRRA9dzhtJwESIAESIAESIAESiEgCFEIislsj36n3a1+Ty1JcRQgf1V0n5H+FeDEyMjwphHQheiTkyx+x1MWfB/S3dzbh9387Ltv5/DUzkJlmwYZ367D7kHfBZbxRYvmKU+SwICfTguw0M3Iy45Gd7tz1RGl5bWs9jlQ4d42ZPT0Jl5ydo/TUoBz3avkTUgRwL4VJM1HV5eTj3k8rci+EeE9PRSxx2d3wDnbWvyV3ghHFZIyR2zovzT4XYskUCwmQAAmQAAmQAAmQAAmQgD4IUAjRRz/RynEERPLSxw78Sv7VlYdid+O7eLfqpQmsxC4to4JHQiGyEgtUP7hW1PagsqYXp+p7cbK6BxU1PTJJqav8415n8laxheszG6rG2JCUGDNW7BDCR7pFzuwQy1sipYilS/W9p+TWv2JJkXjt7u/ArobN2Nu4dYybQngSeVSKkmdr3n2xlbMQ3noHnEKTKCLvh5jhkhCbpHn7aSAJkAAJkAAJkAAJkAAJkMBYAhRCGBG6JOAuhIilMLNSF8oZCWJmgihLstfKh2zxwB1nUj6zoqd3ECeqnEJHZV0vqup6cbJmbN6HM8BGxPwT+d+brixCsjVGzgYRy1RmFCTirutKkJtliYrtY30FUe9AtxRE9jdtkwlEXUUsQVqZeyFm2Ob6qiLs759oP4D3ajagzd442vYMWxnWFlyBFEtm2O1hgyRAAiRAAiRAAiRAAiRAAsEhQCEkOBxZyxQQeHT/L+VWtRZTAjISctHcWwf7UC+S41KxfsH3J7VoeHgENY19qKztlT9S+KjtRVunc9mDt2IwQC5jmZ6fiLyseLz9QROa2yYmK71uXSGuvbRgCqhou0mR40UsMdnTuGWMIJIRn4sVuRdgVuqiKXegtrsCIu9Jfc+pUVuEfecWfgL5ScVTbh8NIAESIAESIAESIAESIAESCIwAhZDA+PHsKSQgklZur319ggXjt67tsw+hvFoIHWKmRy/EMpfq+j4MDE6eRyTeYkJRXgKKchMxPT8BRXmJmJ6XMGbL2eqGPvzpyRM4WulcNpGSFCvzc1AEmTwwxLbFuxvelUtmxO+uInZZWZFzIWalLYLh9GybcIWY2A54S80rKG8/ONqkENXOyr8MpWlCoHHO/mEhARIgARIgARIgARIgARLQNwEKIfruv6i2XuyWUjO8BfHWXpgT++DoiUdfdwIsnSsxf1by6EyPlnbfszyy0ixS9BAzPeRrXiKy0s2K+XZ2D6C53YHiAqvic3gg0D/kkLND9jS+C7Eji6uIpScrci7AnLQlk+7cEwyGYtnOttoN+Khl52iSXbMpHiKp66Kss2EymILRDOsgARIgARIgARIgARIgARLQCAEKIRrpCJqhnEBTmwO1jXb88sFDGBoegViGMrckCR+d6JqQqHR8rWKXlmm5ztkdhTnxKC60YkZ+IsTfWaaOgNiJZV/je3Ib3r7B7lFDbOY0LMs5H3PTV8A4yVbG/lguRJhd9W9BJNl15S0xGWKwKOssrMy9SFVuGX/a5zkkQAIkQAIkQAIkQAIkQAJTQ0DXQsjevQfwl0ee0nUfAAAaA0lEQVT/PkrutvU3YtGi+VNDkq0GjYCYXdHY6kBjiwMNLXbn7612NIj/N9tPt3MmUemPvzwX82bacPB4B378h49G309PMcsZHuKnuMApfORmxgfNTlYUfAJDw4PY37wNu+rfRs9A52gD1rgUuVXtvIwVEGJFIGV4ZAj7mt7Djro3x8xCKU1bjLPzL0dSXEog1fNcEiABEiABEiABEiABEiABjRPQrRAiRJC/P/UcvnTXrSgqKoRLFIkmMaSuyY7jp5zfns+cZkVupvLdUYIRl2Kr2O37WlHX1AdrQgyy0sy48/oSFGRPLjY4+oelwNHU6hQ6hMDhEjoaW+wQ76sp42eExMYY8cCPl0FsW8uiTwJDI4M42PyBnLHR1d8+6kRibDKW5ZyLBRlrYDKq7d8RHGndg221G9HpaB2tM9c6HecVfhKZCXn6hEWrSYAESIAESIAESIAESIAEVBHQpRBitzvwwIOPYvbsWVh36QWjDj/6+FPy9/U336AKgh4PFiLEMxuqxpgezp1KPLUvjCnMScBPvjYPYhtaMaPDObPjjNgh/tbRfWb7VCXsRdJSIbJkp1tk3o7sNOfrK+/WY+/hMw/JrrrWLE7HN28pVVI1j9E4geGRYRxq2Ymd9ZvQ4SZexMdYsTT7Y1iYdRZijXE+vTjVeQxba15BU2/N6LFplmycXXA5xJa4LCRAAiRAAiRAAiRAAiRAAtFDQJdCSGVlFf54/yO48YarxyyF2bBxE97fvhN3f/0u2GzJIe3Fx/9VicPlXXI2xOI5KVi5IA3iATwcZeuHzbjvr8c8NvWlG0qwYkGazJ0xPDQiX+Xv4nUIGB4Rr25/k++pt/qJlyrlbJR5M5NRMs2Kzu5BbN7ReLqiM8tWlNYsZrOIhKVS6BCCR5pZ/i7+NtnMDpEwdeeBNrkDjJgJsnx+KkUQpdB1dNzIyDAOt+7GB/WbIHZ3cRVLTAIWZ63F4qxzsLvxHTT0VKGi4zCm2+YgO7EQxbZ5eKf6X6jpKh89R8wqETsLzUtfEfJErDpCTFNJgARIgARIgARIgARIIGoI6FIIGb8sxtVb3v4e7N4UD9/b9rRMqFbMQvAlhoiZEvb+Ydj7h2B3DMllIOLV7jj9Kv7eP4z+gWGIbV+d7znfdwwMoc8xhIYmO3rsQxAzJb57+2xpx68ePiKPB9SLEIHwuXB1Fu66vkTO/PjyTz90VuXBhDRbnBQ4MtPMyMlwvmZLocMMkcsjkCJEkKMVXSidniTFEJbIJTCCERxr3YsP6t9ES1/DqKNimYzILzKhiB1vRTwCcubI0pxzsSz7PMQYYyMXEj0jARIgARIgARIgARIgARKYlACFEJUBIh64f/DbA/Is8TAvknS6ZkI4k3MmwOEYQt+owOEUO7p7PTykqWx7/OFiJsZ/3b1A/vl79+7HidP5QgKsVuHpzifM5fPScOvV02Wi0j8+eUKeu3pRGhbMsiE7wzmzgwlKFSLlYaoInGg/gO21r6O5r27MeWK2h/i7e5mfuRqrcy9BQiy3N1YFmQeTAAmQAAmQAAmQAAmQQAQSiDgh5PkXX1G8NObYced0+VkzixV37ctv1+GxFyrk8X/44VL5oP+np05g03bXshDFVfk8UMz4sJhNsMQZYYk7/bvZiNaOflTW9sIcZ8LKBamynh372+DoH8KyualYONsGo9EA0+kfo8kAowEwmZx/G33PZEBdfb18r6gwH0YTnO8bDPJY9zpMJoz5/9Mbq/HqO2MfQF0OPfify5GarL9v3P2JB5+dqLMD9Mjgw4Z3saX6JUn6oqLrMDdjOT5q3ok3Kp+Rf/t4yc0oSVG+m5QeGYQizMgBIANnZJEDGTAOzlxl+Xng58H9nst4YDzw+qjf66MuhZBg5Qi597f3o6LilKpnCDty0Yrl8hyxbWtmmgUicaiYFWLAMGLQDQMGYMAQjBiCAYPy97Gvg6ffE8eI98VsEdfvrmO9J+5wIBMtWO3R7nS8DzPO5FDw5VwgC2nasAx9GLvTRip2IR61vprV7PuB8NCsUyoN0xsDkwWYfo1zxtV50z6FhZlrsK9pGzafel7+reLZGAy5dl1WyEJvDBS6xcNIgARIgAQCJMD7Q7gXYQfYYWE4nTHBmBBhxjgAYDBg3SXn47J1F4Xhkxd4E7oUQjo6OiFEjNWrlge0a8z72z/Ek089izvuuFUxydaOIfzu6TaPxy8vs+CKteGZen/whANb9/WhrcspmKQmGXH2wnjMK1GXb6O2tg4vv7xBFQN356sbBlDVNITkeAMKsmNhs+o3R8eDDz6CK65Yh7y8XMXxEGkH6pXBdvtz6B6emLfHakzHKsvVqrpJrwxUOang4Jde3oD8vBwsXbpYwdGReQgZOPv1ww/3oKa2HldesS4yO1qBV2TAOHCFSaDjJgXhpvlDyOBMF3HMAJABGbg+EWLctHjhXKy79ELNX8eEgboUQoThYoeYtzZvwZfuuhVFRYXwJ1GqmM72+z88hN/e+wtVneVp61ixbew315eiIDteVV1TfbC/DKba7lC0//W7/wNf+fLnVS2VCoUdU1mnXhkca9uHV8ufmIDusuKbMCt1oSqkemWgykkFB//vHx7CrJkzdHMzU+CS6kPIwIlsw8Y3cez4SXz1y59XzTBSTiADxoErljluci6F8Gf8HCnXA3c/OGYAyIAMXJ8JvY2bdCuEuMSQVze8IdlbLJZRUUTphTaQC/muj9rQ3OaQO7WIHVGKC626E0EEp0AYKOWsl+N4Idf3hbyq8xg6+9vQPdABa6wNyXGpKEyepTr8GAdOZHq7manuaAUnkAGFEFeYUAihEEIh5MxFk2PHMyw4ZtD32FHBUEDRIYwDfY4ddS2EKIrMSQ7ihZxCCFX9sR8QXsh5Q9erqh/o/cDT+RRCKIRQCDnzyaAY5GTBsSMZcOzIseP4MQPHzxRCQjEODWmdvJnxZsabGW9mvJl5vsxSBOCsGIoAFAHcrw4UQiiEuOKB42fOCOH4mePnSPgCKapnhIRUZWHlJEACJEACJEACJEACJEACJEACJEACmiNAIURzXUKDSIAESIAESIAESIAESIAESIAESIAEQkWAQkioyLJeEiABEiABEiABEiABEiABEiABEiABzRGgEKK5LqFBJEACJEACJEACJEACJEACJEACJEACoSIQlUJIZWUV/vLo33Hb+htRVFTole3evQfkca7ia4teu92BBx58FOUnK0fPWbJkIdbffIOi/nv08afkcUqPV1TpJAcpac8fn9RyG3+8MPmydRdh3aUXBOqiz/O1EguiL3bv3ufR3uIZRbjzjvWwWMw+/fH3gKmMBU8x5s0PNZ8ntSy0EgvCbrWfIbW+jj9+w8ZNcG1F7npPXB8XLZrvterxMesrTgXfP97/COx2+2idvtpwHai0bwLh0NHRiXt/ez/a2tpHqwmFT2q4efpspKam4O6v3wWbLTkQd72eq7VY8BQ37sYrjSE1sLQUC57uj5588TU+UeO/61itxYKwy58xiT++u84JVywEcq1Tcv8OhIE4Nxyx4G6jEp/CPXbUYixMxdhRK7EwlWNHLcbCVIwdA72uaOH8qBNCXB9gX4OGyS4ungZekw3WfA2m3T9QoXzQ83Rjn6w9f3xSy83TBdVlZ6hZaCkWpuJmJjgrjb1QxoKam1moBDK9xEKwH/p8sff0GZzsHG/X1cke5nx9zpX2TSA31MnsC5ZParl5Gmi5fPR1//KHhVZjIdxCiNZiQakQEkyBTI+x4Guc5c9nIhyx4G6X2mud0vu3P767zglXLKgdn4Z77KjVWAjn2FFrseDLHve4D+bYUY+xEOyxYyDXFK2dGzVCyPjB1GQDSW83I1fwjx9weLsZuX9IvX0Ix1/EfD0UBBpAStvzxye13FzfMohX99kf7heZUHx4tRYLrjiprWvAl+66ddJZSoH2//hvXNxnoXiLvXDFgjffXO2L94P9TbjWYsGfz1AgMeH6rI3ve/dB5vjPoOs99+ug+7VufF3u8eN+HXS17e1arKZvAmHg7fPnbvf4hyx/fPKH26OPPYn1t3xmdPaHO+dgP/hpNRa82RVIn3s7V6uxMJmvrrgKxUBfS9cFf+5DgcRIuGJB2OjPtU7pWC4QBu7fMIcyFlw2qvFJxH24xo5ajYVwjx3DcY/wJxbCOXbUaiyEe+wY6HVFS+dHhRDiPqifW1Yqp1Z6e+j0dWHxNOiYbKDm7SHO/aYuHgTWrF6OtzZvQaiEELXtqfXJH26TfRBcN8RgDu5cwotrCYBWYsHFrq29I+gP+p4Y6y0WXJ+5YItiWrsuBPszpORGc+TIcbnkytMSQU/XOlfs9PXZJ4h2rsG8aNdd0HPV4+na5vqcTzbI9vU5VeLnZMcI7tt37MK5HztrwmHert9qffKHmzebXZzj4y1BvV5oNRZc96Jg3ws88dVbLLjiKjXFFtTlk1qMBbVjEj1cF9SOScTxau/fgXIIRywE06dQjB3DcV3wJxbCPXbUWyyEYuyoxViYirFjoNcVLZ0fNULI+9t3ykGj2WyWeTy8CSG+vn12DULLykpHc3n4+kZGXJgPHTo65uHA1c7qVcvlbIhQf+ultj21PvnDLdzfcrluNFqLhXDfzPQUC67PW15udlAH+lqMhWB/hgK90agVfUV7rkGoS7TydYP21r+ibaWf00D9nOx8T33ij0++ru/juam1KZQM3Afonmb0eBPvgxUL4RRC1HKf6lhQEzfBipGpui6oHZMEy9/JvkwQ77lmKfoTC2rvQ+5CSLjGjmrHaf5c69SOSdTaFKmxEO6xo1ruUxkLoRw7euMQrPGC2uuC1saOofy8haLuqBBC3MEpvVl5+7bN0zcwvhRoJaqkrwtGsDvfV3tqffL1LaXab648iUfBZqCVWFDLJtgctBwL4RroayEWgv0ZCjROPD14+HoYGf++rxu0r/eFD776JlA/1T78+rLZ0/tquU1mkycxPpQMvAkhan3yh5t728GeEaaWmSf7/fFJLTdvdk7FQH8qY0HtmERt/6o5PlixML5Nf651vu7favxSe2ww7hGe2gzEp3CMHd1tnspYmOqxozsHrcVCuMaOWogFrY0d1V5Hpvp4CiHjdo2ZbAqz6CxPeUImmyatJE+Ie72hWhozPtB83WjU+uQPN2/B7226fLA/LL4GHf74pJab8Ml9Wqi7j8FMfjcZO63GQjgH+lqIBX/iLdifCVd93mzxNbgYH0u++tAX96kWQjx9nv3xSS03Xw+/4v1w5ROa6lhwX8LmziUcS2U8DfTd79FTGQu+YioU14apjAV/7q2hYOAuBgUaC3oWQoIVC8EUQsI1dgzFdcGfWJjqsWOwxwvBigVf1+VIuy5oaewYKrahrJdCiIftc10X0/FJ/NwTWrk/pLr/fbyQ4Z78abKBm6+H0WAHga/2/PFJLTeXT54GuuH49k/JQ5han/zh5mtXhFAP+LUUC+5xHs6BvlZiQW28Bfu64C48iG3Ax8eerz6JJCHEW3JsX4MsT7Gkltv4AaaaLX2DGROTCflqffKHm/BlfALFqRSLx4vT/viklpun/vTVbjBjwFXXVMeCP/fWUHAI5nXBn4ff8ef4un+HgkEwYyGQh9+pGju6bJ7qWJjqsWOwxwuBxMJUjR21EgtaGDuG4loTjjophHgQQryprKJD1qxZgcOHj2F8cjJv31qJgdOcObOwbdsHmOzhPtw3MyXtqfXJH26Cqbd2Qi2GKHn49ccntdw8fdDd2w3FVpnubWopFlx2hXugr5VY8CfegnmjcG9/suSm3j6bkSKEuD7Dnj57vmIz1EKI6O9g7xjj6xqklVjwJJ6HehalVmJhKgf6WrkuBOPeGsj1MtixoEchJNixEMjD71SNHd3HrcG6RwQjFkQd4Rw7aikWpmrsqJVYmOqxYyDX1ak+l0KIByHE1Snjv4kS346K3V3u/e39E4QQcc54ddb17dG293dC7FSiNyHEX5/Uchv/IXDnGMrZEEoefqciFlxtKl1WFehFRIkQEu5Y8LWOPlCfAxl0qI1vf64LatsIBg/3QaW3a5Xab7P9EQ0C6ZtAObgPJryJDf74pJbbZH646grl0jmtxoInATdUHLQaC77ykgT6GRh/vtZiwZ/raaBMQhULwbjWKb1/B8rA/YFP/B6se0QgQshUjB21HAvhHDuG4roQjFgI59hRi7EwFWPHYFxbprIOCiGTCCHB+FAqfdgO581M+BVIe0p98jRoVfrtna/kP8H40PjjRyA++dNeOC7qWosFX+sdg9H3wRiAhjsWAuknX8xcN09fMw2UJix0CZi+PsdKHur8+dz48tfT++4PWJOJ1v74pJabL/t91efrfCVCixZjwd1uJbHjLwctx8JkuTL89dfbeVq+LrjbHMprRChjIRj3oVDeF9ztC1UsBGOc7V6Hr+tzIJ8RrceCu2+hHDtqNRbCOXbUUyyE6xoRyGdrKs+lEKJSCPH1zZ43hdrX9p/hDtRA2vP1jaingFbLLZSDXJd9gQ6e1PrkD7dQ3sxcHLQWC4HY4+/FVA+xoDbelLJQ81Dt6yFsvI2+BiZKPhOB9o0SDmoGz/74pJabL5tDdV3QeiyEQwjRciyE47PgYqynWFByHfH1mZpMHPW2i6CneOzrs3tMZKzERn/6Nxz3y1DGQrCFkFCNHUN9XQiGKBYOIUTLsRCOz4JgrLdYCNXY0Z9rqhbPoRCiQghRE/xqBxPh+gAH4+FXzYVQ7UXDZZ8/rNV+wPwZdARin1pu7ktjQpkvJZDYU+uTkn5VW6fafvd0vNZjQQk3fzi4+l7pErTJ7PA2AJ2sP5U80AfSN0qYuOpva+/A3V+/CzZbss/T1PrkD7fJjAjFZ0QPseDOxGWvr5krPjvT7QCtx0KorgPjGektFkLxeQhHLATj4TeQ+7eSz0Y4YsFb/CmdQex+fig+I3qJBReHUI0dtR4LobgOePuMhnK8EIzrQiDPKkquC5F0DIUQD0KIuJBu2Pgmbrn5M7BYzLK/XRcA8bunh1LxAVyyaD4WLZovj3e/ECkZqIX6ZubPjUatT2q5ieP/8ujfJc8it35wn3Lmz41Q6QdUyQOWWp9E22q5ebJXydpDpX76Ok5J7Kn1yR9uwk5f37b78sXf97USC/5y89dv0a+HDh1VtRWrp2mxk+Wz8TaF1FvG/WAOApRwcdlXVlaK9TffoOSUMfmg3O8Hk/mklps4XpTxNrnqCXYSZT3EgqtzlKxPV9SR4w7SaiyM9zuU90XXPUyL1wW19yF/YmD8A0SorwvuNiq5D/kzlguEQziuC2p9CvfYMVzXhUBjwX0MJXYaU/LsoSY2tBgLLvvDNXbUaiyEe+yoJm60fiyFEC9CyB/vfwR2u31C/3n75tQ1OB1/gtJEbkoeRoMZTEraU+uT+wPPeFs9cZvseHF+sC/i/jxgqfXJNYjcvXvfhO7yFgveMp+LCoL9sOMphrQQC+MHn76WkgXzsyDqUjIADUcs+NOGvyzcxYvJ6hgfg5NlJ/f2mZ0sxn3NdlLSN/4yEOe5i9yT1TP+4VOtT2q5ebv+umz0xU0NE63GwmTMhH/BFgS0GguuvgzHFGetxoI/91Y1nwFvD+O+6gj0uhDow6+S+7cvH7y9H85YcLfBl0/hHjuG67qgNhbCOXbUaiyEe+yo1VgI59jR3+uJVs+jEOJlacz4YPclaHi6SCidbu4+GA/2wM5b4Pm60bg/HJafrBytxpdParl5G+gGc5Dv6yZfW9cw6Tfian1SGwvebmbRFgtT8TlwxYbSh+1Qx4KnB3Nf1x5/by6+HjJd9XoS49TGeCB+Ke0bfzlMNph0r9PT5zHU8eDJtlAIxFqNBW92hUog1nIshPpz4Ip1rcaCv2MSPVwX1N6H1IgG/vovzgt3LLhsVTI+DefYMZzXBTWxEM6xo5ZjIZxjR63GQiBjrECuEZFwbtQJIZHQafSBBEiABEiABEiABEiABEiABEiABEjAPwIUQvzjxrNIgARIgARIgARIgARIgARIgARIgAR0SIBCiA47jSaTAAmQAAmQAAmQAAmQAAmQAAmQAAn4R4BCiH/ceBYJkAAJkAAJkAAJkAAJkAAJkAAJkIAOCVAI0WGn0WQSIAESIAESIAESIAESIAESIAESIAH/CFAI8Y8bzyIBEiABEiABEiABEiABEiABEiABEtAhAQohOuw0mkwCJEACJEACJEACJEACJEACJEACJOAfAQoh/nHjWSRAAiRAAiRAAiRAAiRAAiRAAiRAAjokQCFEh51Gk0mABEiABEiABEiABEiABEiABEiABPwjQCHEP248iwRIgARIgARIgARIgARIgARIgARIQIcEKITosNNoMgmQAAmQAAmQAAmQAAmQAAmQAAmQgH8EKIT4x41nkQAJkAAJkAAJkAAJkAAJkAAJkAAJ6JAAhRAddhpNJgESIAESIAESIAESIAESIAESIAES8I8AhRD/uPEsEiABEiABEiABEiABEiABEiABEiABHRKgEKLDTqPJJEACJEACJEACJEACJEACJEACJEAC/hGgEOIfN55FAiRAAiRAAiRAAiRAAiRAAiRAAiSgQwIUQnTYaTSZBEiABEiABEiABEiABEiABEiABEjAPwIUQvzjxrNIgARIgARIgARIgARIgARIgARIgAR0SIBCiA47jSaTAAmQAAmQAAmQAAmQAAmQAAmQAAn4R4BCiH/ceBYJkAAJkAAJkAAJkAAJkAAJkAAJkIAOCVAI0WGn0WQSIAESIAESIAESIAESIAESIAESIAH/CFAI8Y8bzyIBEiABEiABEiABEiABEiABEiABEtAhAQohOuw0mkwCJEACJEACJEACJEACJEACJEACJOAfAQoh/nHjWSRAAiRAAiRAAiRAAiRAAiRAAiRAAjok8P8Bw2ajXMi96pEAAAAASUVORK5CYII=;" vertex="1" parent="1">
          <mxGeometry x="60" y="250" width="1090" height="630" as="geometry" />
        </mxCell>
        <mxCell id="6NqZDsg5gwXR2XJMQnKW-4" value="" style="ellipse;whiteSpace=wrap;html=1;sketch=1;hachureGap=4;jiggle=2;curveFitting=1;strokeWidth=3;fontFamily=Architects Daughter;fontSource=https%3A%2F%2Ffonts.googleapis.com%2Fcss%3Ffamily%3DArchitects%2BDaughter;fontSize=20;fillColor=none;rotation=90;strokeColor=#ff0000;" vertex="1" parent="1">
          <mxGeometry x="600" y="480" width="250" height="180" as="geometry" />
        </mxCell>
        <mxCell id="6NqZDsg5gwXR2XJMQnKW-5" value="GDP value rises while GGDP value falls" style="text;html=1;strokeColor=none;fillColor=none;align=center;verticalAlign=middle;whiteSpace=wrap;rounded=0;fontSize=40;fontFamily=Architects Daughter;fontColor=#FF0000;" vertex="1" parent="1">
          <mxGeometry x="747" y="710" width="403" height="60" as="geometry" />
        </mxCell>
      </root>
    </mxGraphModel>
  </diagram>
</mxfile>
